<svg xmlns="http://www.w3.org/2000/svg" viewBox="0 0 1202 1280">
  <path fill="#222" d="M429.5 2.4c-7.6 4.4-11.9 13.2-16 33.1-.9 4.4-3.9 14.7-6.7 23-4.6 13.4-5.2 15.9-5.2 23.6-.1 8.4 0 8.8 3.2 12.8 1.9 2.3 3.1 4.8 2.9 5.5-.3.8-2.7 1.5-5.6 1.8-7.2.7-11.9 4.2-16.1 11.9-3.3 5.9-7.2 10.5-14.8 17.2-2.2 2-3.2 3.8-3.2 5.8v3l5-4.3c2.8-2.4 7.1-7.5 9.6-11.5 7.9-12.6 16.2-17.4 27.2-15.8 12.3 1.8 19.6 8.3 27.7 24.9 6 12.1 6.7 12.6 3.1 2-6.4-18.9-13.2-27.1-26.8-32.3-3.4-1.3-7.3-8.6-9.4-17.8-1.9-8.3-1-13.8 4.1-26.6 1.9-4.6 4.5-13 5.9-18.5 4.3-17.5 7.6-23 16.3-26.9 4.3-2 6.6-2.4 10.4-2.1 5.6.6 14.2 5.3 14.7 8.2.3 1.5 0 1.7-1.4 1.1-5.1-2.1-14.3-5.3-17.1-6-3.2-.6-3.3-.5-3.3 2.6 0 1.9.7 3.7 1.8 4.5 1.6 1.1 1.3 1.6-2.5 5.2-3 2.7-4.3 4.8-4.4 6.8-.5 8.6 1.1 13.5 5.9 18.6 3.1 3.4 4.2 3.5 4.2.5 0-1.3-1.5-3.7-3.4-5.6-1.9-1.9-4-4.7-4.7-6.2-1.6-4 .8-7.5 6-8.9 4.6-1.2 8.2-.2 10.5 3.2 1.6 2.2 1.6 2.2 1.6-1.5 0-5.2 1.6-4.8 8.3 2.1 10 10.1 15.1 19.7 18.1 34.5 2.5 11.8 2 25-1.5 46.4-3.3 19.9-3.5 31.3-.8 39.6 1.2 3.7 1.4 3.8 5.1 3.2 3.3-.6 3.8-.4 3.8 1.2 0 1 .9 3.3 2 5.1 2.7 4.4 2.6 5-1.7 5.8-9.3 1.7-24.4 12.9-34.7 25.7-4.1 5.1-9.3 10.7-11.5 12.5-3.1 2.5-4.1 4-4.1 6.2 0 1.7.3 3 .8 3 .4 0 3.4-1.6 6.7-3.7 3.3-2 8.6-4.6 11.7-5.9 8.5-3.3 20.2-11.9 27.6-20.1 3.7-4.1 8.2-8 10.3-9 3.7-1.6 5-3.6 6.3-9.4.5-2.3-.3-3.6-4.7-8-8.5-8.7-9.5-15.6-5.1-35.6 1.5-7 2.7-16.1 3-22.3l.3-10.5-1.3 8.5c-.7 4.7-2.1 12.1-3 16.5-.8 4.4-2 12.3-2.6 17.4-.6 5.2-1.3 9.7-1.5 10-.3.2-1.1-.1-1.7-.7-1.7-1.7-1.5-11.2.6-21.7 1.3-6.5 2-15.8 2.3-33.3.3-13.3.9-24.2 1.4-24.2.8 0 1.4 1.9 3.8 11.5.9 3.5 1 3.1.5-3-.8-11.2-5.5-23.2-16.5-42.6-11.4-20-16.3-25.8-25.6-30-7.4-3.4-10.5-3.5-15.8-.5zM626.5 38.3c-10.7 3.6-19.7 11.4-24.1 21-2.7 5.9-2.9 6.9-2.9 19.7.1 19.1 1.3 21.8 23.6 51.2 16.4 21.4 38.9 56.8 38.9 61.1 0 .9-1.4 3.9-3 6.6-1.7 2.7-4.2 7.8-5.6 11.3-1.4 3.5-3 6.7-3.4 7.2-.6.6-5.7-1.6-12.7-5.2-21.2-10.9-38.3-15.4-58.8-15.5-14.9 0-23.3 1.6-33.3 6.5-11.3 5.6-18.2 14.1-20.2 25-1.3 6.7-.6 7.2 1.4 1.1 4.5-13.4 19.9-20.3 45.6-20.3 24.5 0 41.8 4.2 66.6 16.1l8.2 3.9v14.2c-.1 28.6 6.8 51.6 20.9 70.1 2.6 3.4 17.2 18.6 32.4 33.7 24.3 24.1 34.5 35.3 51.7 56.3 2.3 2.9 5.4 7.4 6.7 10.1 2.3 4.6 2.5 4.8 2.5 2-.1-7.7-7.9-23.3-23-45.9-15.1-22.4-26.7-35.5-53.9-60.5-6.3-5.7-13.8-13.3-16.7-16.9-6-7.3-12.4-18.9-14.8-27.1-3.2-10.6-3.1-30.7.1-31.7 2-.7 19.6 12.1 29 21 9.2 8.9 34.3 39.9 32.6 40.4-.5.2-3.9-1-7.5-2.7-8.9-4-13.9-4.7-16.2-2.5-3.1 3.2-1.7 5.7 4.4 7.5 11.7 3.5 30.3 15 39 24 3 3.1 7.3 8.7 9.4 12.4 2.1 3.6 4.1 6.4 4.3 6.2.9-.8-2.9-12.1-5.9-17.8-3.3-6.3-11.4-15.1-18.2-19.7-4.3-3-5.6-4.8-5.6-7.9 0-.9-1.8-4.4-4-7.7-6.7-9.8-14.4-23.2-20.7-36-7.7-15.3-22.3-48.7-22.3-50.9 0-2.7 5.5-8.9 16.4-18.2 5.5-4.8 12.2-11 14.9-13.8 4.3-4.5 4.7-5.5 4.7-9.8 0-4.2-.3-4.8-2-4.8-5.8 0-18.5 10.6-31.7 26.2-3.6 4.3-7 7.8-7.4 7.8-.5 0-4-6.2-7.8-13.8-12.4-24.8-20.7-38.2-47.7-77-7.7-11.2-8.4-15.2-3.5-22 10.6-14.5 34-18.4 52.9-8.8 11.3 5.7 21.2 16.5 21.2 23.1 0 6.1-9.1 12.3-21.6 14.6-9.7 1.8-24.1-1-28.3-5.5-4.7-5-1.1-10.5 8.5-13l4.9-1.2.3-4.9.3-4.8-5.3.6c-6.5.8-9.6 3-12.6 8.8-3.2 6-2.7 15.7 1.2 22.3 6.5 11.1 25.7 17.3 39 12.7 5.6-1.9 13-9.2 15.7-15.4 2.7-6.3 3.7-18.9 2-26.7-3-14.1-13.2-27-26.5-33.6-7.1-3.5-8.4-3.8-17.9-4.1-6.6-.2-11.6.2-14.2 1zm45.1 170.4c1.4 3.2 6.4 14.3 11.1 24.6 4.7 10.3 8.3 19.1 7.9 19.4-.3.4-5.9-4.5-12.3-10.8-6.5-6.3-14.2-13.2-17-15.4-2.9-2.1-5.3-4.5-5.3-5.2 0-3.7 9.3-18.3 11.6-18.3.9 0 2.6 2.4 4 5.7z"/>
  <path fill="#222" d="M452.7 72.5c2.2 6.6 7.1 11.5 11.4 11.5 4.5 0 6.1-1.2 5.7-4-.2-1.9-1.4-2.6-5.5-3.8-2.9-.8-7-3-9.2-4.9l-4-3.4 1.6 4.6zM414.4 73.1c-1.2 1.4-1.9 4-2.2 8.3-.7 10.8 1.8 14 17.8 22.8 7.3 4.1 10.7 7.3 14.5 13.8l2.6 4.5-.6-3.5c-1.9-10.1-9.4-19-21.3-25.5-4.1-2.2-8.5-5.2-9.8-6.8-3.2-3.8-3.2-8.6.1-11.7 1.4-1.3 2.5-2.7 2.5-3.2 0-1.4-1.6-.9-3.6 1.3zM488.1 85.6c0 1.1.3 1.4.6.6.3-.7.2-1.6-.1-1.9-.3-.4-.6.2-.5 1.3zM507.4 100.5c-1.2 3.1.3 3.9 9.7 5.1 13.2 1.7 20.5 4.3 35.4 12.5 7.2 3.9 18.1 9.1 24.4 11.6 20.7 8 33.8 15.2 47.4 26 5.5 4.5 6.7 5 6.7 3.4 0-1.1-2.9-4.9-6.7-8.6-10.8-10.7-16.4-14.1-67.9-41.1C540 100.8 533.6 99 518.2 99c-8.1 0-10.4.3-10.8 1.5zM737.8 114.6c-.3.5-2.2 6.5-4.3 13.4-4.8 16-8.9 26.6-16.4 42.9-7.6 16.4-9.9 23.2-11.1 32.9-1.7 12.7 1.4 29.2 7.7 41.7 1.1 2.2 2.4 6.7 2.8 10 .9 7.3 2.8 12.1 6.2 15.7 4.1 4.3 5.3 3.7 5.3-3-.1-4.5-.8-7-3.5-12.1-1.8-3.5-3.1-7.1-2.8-8 1.6-4.3 11.8-17.4 21.3-27.5 18.5-19.6 21.9-25.3 22.7-38.9 1-14.7-2-23.2-13.4-38.7-8.4-11.3-10.9-16.1-12.6-23.7-.8-3.1-1.6-5.3-1.9-4.7zm3.3 17.2c2 6.1 6.8 15.1 13.5 25.3 3.5 5.3 6.9 11 7.5 12.7 1.6 4.7-1.1 9.1-11.4 18.5-13.1 12-23.1 23.9-28 33.4-2.3 4.6-4.6 8.3-5 8.3-1.6 0-5-9.5-5.4-15.4-.7-8.6 1.6-14.6 15.2-39.8 8.3-15.4 11.5-22.3 11.5-24.8v-3.4l-3.8 3.7c-4.3 4.2-5.2 4.5-5.2 1.9 0-1.4 4.8-16.7 7.5-24 .8-2 2.2-.6 3.6 3.6z"/>
  <path fill="#222" d="M737 178.2c-2.9 3.9-21.1 39-20.5 39.6.2.2 2.3-3.1 4.7-7.3 2.4-4.2 7.8-13 12-19.6 4.2-6.5 7.8-12.6 8-13.5.5-3-1.7-2.5-4.2.8zM393.4 118.6c-.4 1.6-1.5 4-2.5 5.4-.9 1.4-2 3.6-2.4 5l-.7 2.5 1.7-2.3c.9-1.2 3.6-3.2 6-4.3l4.3-2 4.4 2.1c7.2 3.7 12.8 10.7 21.4 26.6 9.6 17.9 16.8 26.4 22.5 26.4 5.8 0 12-8.2 10-13.3-1.5-3.6-5.8-8.8-9.4-11.3-2.2-1.5-3.7-3.5-4.2-5.6-.5-2.1-.9-2.7-1.2-1.6-.7 2.7-2.9 1.1-8.2-6.1-11.3-15.3-22.8-23.1-34.8-23.9-6.1-.4-6.2-.4-6.9 2.4zM573.2 138.3c-5.7 2.2-10.2 6.4-10.2 9.7v2.9l5-3.1c14.2-8.8 28.1-2.8 55.1 23.8 8.5 8.5 15.8 15.4 16.2 15.4 1.8 0 .3-4.4-3.4-9.9-9.3-14-27.2-30.1-40-36.1-7.6-3.5-17.4-4.7-22.7-2.7zM382.2 141.9c-2.7 2.7-4.2 5-4.2 6.6 0 3 1.1 3.2 2.5.6.6-1.1 2.3-3.5 3.8-5.5 4.2-5.2 2.8-6.4-2.1-1.7zM495.7 139.8c-1.8 1.9-2.4 9.2-.8 9.2.5 0 1.4-.7 2.1-1.6 1.5-1.7 6.1-1.5 6.7.2.2.6-1.2 3.5-3.2 6.4-4.1 6-4.6 8.3-1.1 5.1 7.6-7.1 7.5-21.1-.1-21.1-1.1 0-2.7.8-3.6 1.8zM512 141.3c-1.5.7-2.6 2.3-2.8 3.8-.3 2.3 0 2.5 3.1 2.1 5.1-.6 5.8 1.6 1.6 4.7-9.6 7.3-16.3 15.1-12.8 15.1 1.2 0 7.9-5.4 14.1-11.2 3.6-3.4 3.9-4 3.6-8.4-.4-5.8-2.9-8-6.8-6.1z"/>
  <path fill="#222" d="M365.7 150.4c-2.5 4-2.7 5.2-2.5 11.9.2 5.8-.1 7.9-1.3 9.3-4.5 5.1-3.5 12.2 2.3 17.6 3.1 2.9 4.2 4.8 4.9 8.4.5 2.6 1.6 5.8 2.5 7.2 3.4 5.3 14.6 7.6 23.9 5.1 2.2-.6 8.9-3.5 15-6.5 13.4-6.5 21.6-9.4 26.7-9.4 4.3 0 4.7-.9 1.7-3.6-3.2-2.9-10.6-2.2-22.4 2.1-5.5 2-12.4 4.5-15.2 5.6-5.8 2.1-16.5 2.5-22.5.9-5.7-1.6-7.9-4-8.9-9.5-.6-3.3-1.7-5.8-3.4-7.2-2.9-2.6-3-3.4-.9-7.5 1.5-2.8 1.5-4 .4-10-1.3-6.6-1.3-6.8 1.3-10.6 2.5-3.6 3.6-8.2 2-8.2-.5 0-2.1 2-3.6 4.4z"/>
  <path fill="#222" d="M375 166.1c0 .8 1.6 3.6 3.5 6.3 2.6 3.7 3.5 4.4 3.5 2.9 0-1.1-1.4-3.8-3.1-5.9-4-5-3.9-5-3.9-3.3zM871.1 173c-22.1 6.3-40.4 23.9-45.2 43.5-.7 2.8-1.2 10.4-1.2 17 0 19 3.2 28.5 15.8 46 5.7 7.9 8.7 13.1 9.9 17.1.4 1.5-.7 3.7-4.4 8.5-4.5 5.8-5 6.9-5 11.6 0 2.9.2 5.3.4 5.3 1.6 0 10.1-5.4 11-6.9.6-1.1 3.5-5 6.3-8.8 6.6-8.5 10.4-15.6 13.9-25.8 2.3-6.6 2.8-9.7 2.7-17.5 0-11.2-1.6-16.4-7.9-26.2-6.5-10.1-7.4-12.3-7.4-17.7 0-7.5 5.1-16.6 18.2-32.2 3.5-4.2 4.2-6.5 3.9-13.2-.1-3.3-1.7-3.4-11-.7zm-3.1 16.9c0 .5-1.8 4.2-4 8.3-4.9 9.2-7.4 19.3-6.6 26.8.7 5.7 4.1 13.6 10.2 23 8.3 13.1 6.9 22.2-6.1 38.8-3.1 3.9-6.3 7.2-7.1 7.2-2 0-1.7-3.7.5-5.9 3.2-3.2 4.4-9.6 3.8-20.6-.7-14.8-2.9-20-12.9-29.8-8.6-8.5-10.3-11.4-8.9-15 1-2.4 7.1-8.2 15.1-14 2.5-1.8 4.6-4.3 4.8-5.5.3-2-.1-2.2-3.8-2.2-5.9 0-4.9-1.6 4.5-7.3 7.7-4.6 10.5-5.6 10.5-3.8zm-36.1 44.7c2 7.9 5 12.6 13.2 21l8 8-.3 8.5c-.2 4.6-.7 8.4-1.2 8.4s-1.7-2.3-2.6-5c-2.6-7.5-6.2-14.2-12-22-5.8-7.8-7.7-11.5-8-16-.6-8.6 1.1-10.2 2.9-2.9zM419.5 174.8c-2.7 1.6-7 4.1-9.5 5.7-7.2 4.5-14.7 7.5-20.9 8.2-5.2.5-6 .3-7.3-1.6-1.8-2.5-2.8-1.8-2.8 2 0 4 2.9 5.3 10.9 4.6 10.8-.9 22.6-6.6 32.6-15.8 7-6.5 5.6-7.9-3-3.1zM174.1 181c-.2 13.1 6 29.6 17.6 47 33.4 50 64.9 78.8 113.6 103.6 9.3 4.7 16.5 9 16.1 9.4-.5.4-4 .3-7.9-.2-11.3-1.6-30.9-.5-37.8 2.2-11.7 4.4-17 11.8-17 23.5 0 12.3 3.4 18.9 11.8 23 7.1 3.5 13.5 4.5 34.5 5.4 15.8.6 19.2 1.1 23.4 2.9 4.1 1.9 4.7 2.4 3.6 3.7-.7.8-1.8 1.5-2.4 1.5-.6 0-2.8.5-4.8 1.1-3.3.9-3.8 1.4-3.8 3.9 0 7.2 12.1 6.7 15.9-.7 2.6-5.2.6-14.7-4-19-4.8-4.4-9.6-5.5-29-6.9-19.6-1.4-29.1-3.2-35.4-6.7-4.7-2.7-6-4.6-5.1-8 1.6-6.7 10.8-13 23.6-16.3 8.3-2.2 27.7-2.2 45.4 0 9 1.1 13.3 1.2 14.2.5.9-.7 3.5-.3 9.1 1.4 20.8 6.6 37.9 8.2 71.3 6.6 27.3-1.3 48.7-.8 63 1.6 45 7.4 76 30 90.1 65.8 3.6 9.1 3.7 6.5.3-4.5-10.8-34.3-33.7-58-65.9-68.1-18.4-5.8-23.7-6.2-77-6.2-42-.1-50.4-.3-59-1.8-12.8-2.3-29.6-6.7-40.7-10.7l-8.8-3.2-2-6.5c-3.7-12.1-2-19 6.7-26 14.5-11.7 17.8-16.4 19.3-27.4 1.2-8.4-.4-20.9-3.6-27.9-1.4-3-4.5-8.7-7-12.7-5.9-9.4-8.8-16.2-10.9-25.3-.9-4.1-2.1-8.4-2.5-9.5-1.4-3.1-1.2 5.7.1 11.2 2.2 8.5-.1 16.4-10.8 37.2C308.5 264 305 274 305 283.2c0 4.8-1.2 6.3-2.5 3-.3-.9-1.3-7.6-2-14.7-2.3-21.5-4.6-25.3-22.1-37.2-13.4-9.2-19-14.5-22.7-21.8l-2.6-5 .1 13.5c.1 7.7.4 11.6.7 9.1.3-2.5 1.1-4.6 1.6-4.7.6-.2 2.6 2.2 4.5 5.2 2.2 3.6 6 7.5 10.5 10.8 3.9 2.9 10.2 7.6 14.2 10.5 9.8 7.3 11.9 11.4 13.6 26.5.7 6.4 1 11.9.5 12.2-1.2.8-5.4-2.4-6.6-5.1-.7-1.5-1.7-2.2-2.5-1.9-1.5.5-16.7-9.1-16.7-10.7 0-.5.2-.9.6-.9 1 0 13.8 7.1 15.5 8.6 1.5 1.3 1.7 1.1 2.2-2.1.9-5.6-.5-7.9-6.4-10.4-2.9-1.3-7.5-3.7-10.3-5.5-2.8-1.7-6-3.6-7.1-4.2-1.7-.9-2.1-2.5-2.6-9.6-.3-4.7-.9-9-1.3-9.6-1.2-2-2.5-.4-3.2 4.3-.6 4.4-1.9 6.4-3.1 5.1-.4-.3-1.2-3.4-1.9-6.9l-1.2-6.2-.1 4.7c-.1 6.7 2.5 18.3 5.8 25.5 3.9 8.2 9.2 13.1 23.6 21.5 7.1 4.2 14 9.2 17 12.2 2.7 2.8 5.5 5 6.2 4.8.6-.1 1.9 2.1 2.9 5 .9 2.9 2.8 7.4 4.1 10.1 3.5 7.1 1.4 7-13.3-.8-39.9-21-64.8-41.8-91.9-76.8-24.1-31.2-28.7-39.3-32.5-57.2l-1.9-9v5.5zm161.8 46.6c1.5 3.9 5.3 12.2 8.4 18.4 6.5 12.8 7.1 17.1 3.4 23.2-2.6 4.3-7.2 8.2-8.7 7.3-.5-.3-1-4.1-1-8.4 0-10.9-2.1-17.3-7.6-22.7-2.4-2.5-4.4-4.9-4.4-5.5 0-.6.9-4.1 1.9-7.7 1.1-3.7 2.2-8 2.6-9.5.9-4.3 2.4-2.9 5.4 4.9zm-8 20c1.7 1.4 3.1 3.2 3.1 4.1 0 .8-1.6 4.2-3.6 7.5-2.8 4.8-3.8 7.9-4.7 14.7-.6 4.7-.9 10.6-.7 13.1.2 2.5.3 7 .3 10-.3 21.7-.6 27-1.3 27-1.6 0-8.2-12.9-10.6-20.6-2.7-8.3-3.2-19.2-1.3-27.2 1.3-5.7 13.4-31.2 14.8-31.2.5 0 2.3 1.2 4 2.6zM307 301.1c0 .5-.4.9-1 .9-.5 0-1-.7-1-1.6 0-.8.5-1.2 1-.9.6.3 1 1 1 1.6z"/>
  <path fill="#222" d="M904.6 185.5c-19.8 11.3-27.2 20-29.6 34.8-1.4 8.8 0 17.4 5 31.7 4.5 12.8 4.6 11.7.5-3.9-4.9-18.6-2.2-34.2 7.2-41.8 8.1-6.4 15.3-10 15.3-7.6 0 .5-.7 3-1.5 5.7-2.2 7.3-1.8 19.5.9 30 1.6 6.2 2.1 9.8 1.6 12.2-1 4.3-6.7 11.6-8.9 11.2-1.7-.3-3.8-7.6-4-13.6-.1-1.7-.5-3.2-1.1-3.2-1.2 0-1.2 3 0 13 .7 6 .6 8-.6 9.7-1.6 2.5-4 3-4.7 1-.2-.6-.5.6-.5 2.8 0 2.2-.4 6.2-.9 8.8-.6 2.6-.6 5-.1 5.3.4.3.8.1.8-.5s4.5-5.8 10-11.6c8.4-9 10.2-11.5 11.6-16.2 1.9-6.7 1.2-14.8-2.2-24.7-4.2-12.3-2.8-19.3 7-32.7 3.8-5.2 4.6-7.1 4.6-10.6 0-2.8-.4-4.3-1.2-4.3-.7 0-4.8 2-9.2 4.5zM812.4 187c-6.9 3.9-15 13.2-22.4 25.7-3.4 5.7-6.6 10.3-7.1 10.3-.4 0-1.2-1.5-1.7-3.3l-.9-3.2-1.2 4c-.8 2.2-3.5 9.6-6.1 16.5-2.7 6.9-5.6 16.1-6.5 20.5-2.1 10.2-3.1 38.8-1.7 47.8 1.2 7.7 4 14.1 6.2 14.5 1.4.2 1.5-2.1 1.2-19-.6-27.7 1-36 11.3-57.5 10.9-22.9 22.7-37.2 40.1-48.8 5.7-3.8 6.9-5.7 5.4-8.6-1.7-3.1-10.2-2.6-16.6 1.1zM769 280.1c0 5.1-.4 7.8-1 7.4-1.4-.9-.9-15.5.6-15.5.2 0 .4 3.6.4 8.1z"/>
  <path fill="#222" d="M892.2 225c-1.3 2.7-2.1 6.3-2.1 9l.1 4.5.9-3.8c.5-2.1 1.6-5.1 2.5-6.8.8-1.7 1.3-4 1.1-5.2-.3-1.8-.7-1.4-2.5 2.3zM814.1 239.7c-.2 3.7-1.2 5.3-3.6 5.3-3.2 0-11 8.8-14.5 16.3-5.6 11.9-6.5 17.3-6.5 38.7.1 18.7.2 19.9 3 28.5 1.6 4.9 3.1 11.6 3.3 14.8.3 4.7.8 6.1 2.7 7.3 3.4 2.2 4.8 9.1 4 20.4l-.6 9.5 2-2.4c1.6-1.7 2.1-3.7 2.1-7.8 0-5.1.2-5.5 3.3-7.1 5.2-2.7 12.2-10.5 17.2-18.9 8.4-14.4 11.7-30 9.5-44.9-1.5-9.9-4.3-16.7-10.8-26.7-6.4-9.9-9-16.7-10.1-27-.4-4.5-.9-7.2-1-6zm-.7 17.8c.8 8.2 3.2 14.3 9.5 24.3 7.7 12.3 10.3 18.1 10.8 24.1.6 6.4-1.1 14.1-3.1 14.1-1 0-1.5-2.6-1.8-10.3-.6-13.1-2.6-17.9-11.7-27.2-3.8-3.9-8-8.8-9.5-11l-2.6-4v3.5c.1 6.9 3 17.3 7 24.6 2.2 4 4 7.7 4 8.2 0 .5-1.8 2.2-3.9 3.7-4.3 2.9-4.4 2.9-10.3-1.7-5.5-4.3-6.3-1.5-1 3.2 2.3 1.9 4.2 4 4.2 4.6 0 1.7-5.8 14.2-6.9 14.8-1.2.8-4.6-8.2-6-15.9-1.6-8.7-1.3-16.2.9-25.1 2.8-11.3 16.7-38.3 18.9-37 .4.3 1.1 3.5 1.5 7.1zM750.1 260.9c-4.4 15.5-5.3 35.1-2.5 53.9 2.1 14.7 10.4 54.1 9.8 46.7-.3-3.3-2.4-16.4-4.6-29-5-28.3-5.3-37.5-1.9-56.2 1.9-10.2 2.2-13.9 1.4-16.5l-1-3.3-1.2 4.4zM925.8 258.9c-8.9 2.9-16.6 11.1-29.2 31.4-11.5 18.4-17.8 27.5-24 34.4-4.9 5.4-18.6 15.3-21.2 15.3-1.2 0-1.4 1.1-1.2 4.6.4 5.8 2.6 7.7 11.7 10 18.5 4.7 42.3-9.2 47.4-27.7.9-3 1.8-10.1 2.2-15.9.8-14.6 2.5-20 7.5-24.3 4.7-4 9.5-5.6 19-6.4 7.9-.7 8.5-1.5 7-9.5-1.1-5.6-2-7.6-4.8-10.1-2.2-2-10.4-3-14.4-1.8zm-12.8 21c0 .5-.5 2.2-1 3.7-.6 1.4-1.5 8.7-1.9 16.1-.8 12.1-1.3 14.2-4.1 19.9-3.3 6.8-11.8 15.4-15.2 15.4-1.2 0-1.8-.5-1.5-1.3 4-9.3 12.9-28.2 14.1-29.9 1.6-2.2 2.2-7.8 1-7.8-.4 0-2.2.9-4 2.1-4.7 2.9-4.5.8.7-6.7 6.3-9.1 11.9-14.5 11.9-11.5zm-43.2 57.3c.7.7 1.2 1.8 1.2 2.5 0 1.5-6.3 2.8-8.7 1.8-1.6-.6-1.4-1 1.2-3.1 3.4-2.7 4.6-2.9 6.3-1.2zM171.7 261.5c-.4.8-.2 1.7.3 2 .6.4 1-.3 1-1.4 0-2.5-.6-2.7-1.3-.6zM176.2 273.7c.3 3.8 2.4 5.6 3.4 2.9.9-2.4-.4-6.6-2.2-6.6-1.1 0-1.4.9-1.2 3.7zM185.7 282.6c-.9.9-.9 4.7-.1 6.8 1.6 4.1 5.1-.3 4.2-5.1-.3-1.8-2.9-2.9-4.1-1.7zM402.6 285.1c-3.8 3-5.2 8.7-3.7 15.3 2.2 9.9 9.1 16.7 21.6 21.2 10.5 3.8 20.3 4.1 38.6 1 18.7-3.1 29.5-3.3 40.6-.6 30 7.2 52.2 23.2 63.5 45.9 4.3 8.7 4.9 7.6 1.4-2.5-9.7-28.7-32.6-48.9-64.3-57-12.1-3.1-25.1-3.2-39.5-.4-14.7 2.8-24.2 3.5-31.3 2-11.1-2.2-24.3-9-26.3-13.4-1-2.2-.8-3 1.3-5.5 4.3-5.1 2.9-9.8-1.9-6zM195.6 291.6c-.9 2.3-.7 6.7.4 8.4 1.2 1.9 4.4.2 4.8-2.7.7-4.9-3.7-9.7-5.2-5.7zM1121.7 296c-8.4 2.5-16.3 11.8-21.6 25.2-4.5 11.5-4.5 14.1 0 4.8 7.4-15 18.4-23.4 28.2-21.6 4.1.8 6.4 3.1 8.3 8.3l1.3 3.8.1-3.9c0-6.1-2-11.4-5.7-14.6-3.4-3.1-5.7-3.5-10.6-2zM593.3 300.4c-10.3 4.8-16.7 13.9-19.9 28.5-1.3 5.9-1.6 10.6-1.1 23 .3 8.6 1.1 18.3 1.7 21.6 1.8 9.8 8.2 35.7 8.6 35.2.3-.2-1.4-8.9-3.6-19.2-2.3-10.4-4.5-23.2-5-28.4-2.6-28.1 6.9-46.5 26.1-50.1 10.3-2 19.9 2.6 19.9 9.5 0 3.9-3 6.9-8.8 8.6-2.4.7-4.8 2.1-5.3 3.1-1.3 2.5.8 6.8 4.3 8.7 2.4 1.4 2.8 1.4 4.6-.3 5.3-4.7 8.8-21.2 6.2-29.2-1.6-5.1-5.4-10-9-11.9-4.4-2.3-12.6-1.9-18.7.9zM209.8 305.6c-.9 2-.9 3.4.3 6.7 1.5 4.4 3.9 5.8 6.4 3.7 1.7-1.4 2-8.2.5-11.1-1.6-2.9-5.8-2.5-7.2.7z"/>
  <path fill="#222" d="M1113.1 316.2c-5 6.8-9.1 15.2-12.6 25.8-1.5 4.7-5.4 15.7-8.7 24.4-6.4 17.2-10.2 30.9-11.2 39.6-.5 5.5-.5 5.5 1.5-2 1.1-4.1 5.4-15.8 9.6-26 4.1-10.1 8.6-21.6 10-25.5 5.7-16 13.4-27.5 18.4-27.5 2.6 0 6.9 4.4 6.9 7 0 1.2.4 1.9.9 1.5 1-.6.6-5.3-1-11.8-1.1-4.1-6.3-10.7-8.5-10.7-.7 0-3.1 2.4-5.3 5.2zM225.7 314.7c-1.3 1.3-.7 10.9.9 13.1 1.8 2.6 5.6 2.9 7.4.6 1.6-1.9 1.6-11-.1-13-1.2-1.4-7-2-8.2-.7zM250.4 322.5c-1.3 2-1.5 3.9-1.1 8.2.6 6.1 1.8 7.8 5.9 8.8 7.9 2 11.2-14.2 3.7-18-4.1-2.2-6.6-1.8-8.5 1zM636.5 330.7c-.7 4.7 5.8 31.3 10.5 42.6 7.8 18.8 17.2 27.4 31 28.5 6 .4 14 3.3 14 5 0 .4-6.2.7-13.8.8-11.6 0-14.7.4-20.2 2.3-8.7 3-16.4 8.2-19.7 13.3-2.4 3.5-2.8 5.2-2.8 10.9 0 5.3.5 7.4 2.1 9.5 3.6 4.8 7 6.8 12.1 6.8 4.7.1 4.8 0 5.1-3.1.3-3 .1-3.3-4-4.3-6.5-1.8-11.6-4.7-12.3-7.1-1.6-4.9 7.2-11.1 20.5-14.6 8.7-2.2 37.4-2.4 44-.2 6.1 2 5.7 3.9-1 5.6-14 3.6-23.8 13.8-26.9 28.1-6 28.6 14.9 53.6 38.3 45.6 6.2-2.1 15.8-11 19.1-17.7 3.6-7.6 4.2-13.4 1.7-18.9-1.9-4.3-7.5-9.8-10-9.8-2 0-1.3 4.9 1 6.8 5.3 4.2 6.8 6.5 6.8 10.3 0 3.2-.7 4.6-3.9 7.8-10.1 10.1-30.2 10.8-41.3 1.6-11.2-9.3-11.6-19.9-1.3-29.4 15.1-14 42.8-15.5 62.7-3.4 9.2 5.5 14.6 13.2 17.3 24.5 3.1 13.4 1.1 28.1-6 42.3-2.5 5-4.5 9.9-4.5 10.9 0 1.8.2 1.8 2.5-.4 3.4-3.2 7.3-11.8 9.1-19.8 2-9.8 1.8-29.7-.5-40.7-2.6-12.2-5.1-17.6-11.5-24.3-5.2-5.5-5.4-6-7-15.1-5.3-29.5-19.3-49.3-43.6-61.6-3-1.6-13.5-6.3-23.3-10.6-17.8-7.8-30-14.5-36.7-20.4-7-6.1-6.7-6-7.5-1.8zm13.9 18.2c8.9 6.7 16 10.6 37 20 18.3 8.2 26.3 12.5 31.9 17.3 5.9 4.9 2.4 4.9-18.2-.3-22.9-5.7-37.2-11.9-43.5-18.9-2.1-2.3-4-3.9-4.4-3.5-.4.3.4 3.6 1.6 7.2 1.3 3.6 2.1 6.7 1.8 7-1.9 1.9-8-9.3-12.2-22-4.4-13.8-3.9-14.3 6-6.8zm74.2 66.6c7.8 2.9 12.5 5.7 17.7 10.3 3.9 3.6 5.1 7 2 5.7-1-.4-4.7-1.8-8.3-3.1-4.7-1.6-6.9-3.1-8-5-.9-1.5-4.1-4.2-7.3-5.9-3.1-1.7-6-3.5-6.4-3.8-1.5-1.5 4.1-.5 10.3 1.8z"/>
  <path fill="#222" d="M1116.8 330.7c-.9 1-1.9 2.8-2.2 3.9-.7 2.1-.6 2.2 2.9.5 2.4-1.1 3.4-2.2 3.2-3.5-.3-2.6-2-3-3.9-.9zM1118 342c-.7 1.7-1.9 3.4-2.8 3.9-.9.5-1.2 1.3-.7 2.1.6.9 1.6-.2 3.2-3.4 1.4-2.7 2.2-5 2-5.2-.2-.3-1 .9-1.7 2.6zM1136.3 350.2c.2 10.6.3 10.8 4.9 19.7 6.1 11.6 6.7 14.7 3.8 20.7-2.8 5.7-8.1 9.6-19.3 14.4-8 3.5-8.2 3.7-8.5 7.3-.3 3.2 0 3.8 2.2 4.7 1.4.5 9.4.9 17.8.7 17.2-.2 20.4.7 23.4 6.5 2.5 4.8 1.2 9.6-7.4 27.3l-7.7 15.9V478c0 9.9.2 10.9 3.3 17.3 1.9 3.8 3.2 7.1 2.9 7.3-1.1 1.2-9-4-13.9-9-3.1-3.1-9.3-12-14.8-21.1-16.1-26.6-28.2-37.2-37.2-32.4-2.7 1.4-5.8 8.5-5.8 13.3 0 5 2.6 14.8 5.6 21.2 2.8 6 2.9 6.4.9 6.4s-5.8-4.2-12.5-14.1c-5.6-8.2-6.7-9.2-13.3-11.3-2.6-.8-7.6 3-9.3 7-.8 1.8-1.4 5.7-1.4 8.6l.1 5.3 1.5-3.5c2.8-6.6 8.3-8.7 14.3-5.5 1.6.8 6 5.6 9.9 10.7 10.8 14.4 13.3 15.8 14.7 7.9 1-6-.2-11.6-4.6-21.3-3.5-7.6-3.8-9-2.8-11 1.8-3.4 4-4.7 7.6-4.8 9.8-.1 18.1 8.9 37.4 40.4 11.7 19.2 20.5 24.9 48.9 32 9.6 2.4 18.8 4.9 20.3 5.5 2.5 1 2.9.8 3.7-1.5 1.4-3.5 1.2-7-.2-8.1-1.2-.8-19-9.3-34.9-16.6-8.8-4-14.2-8.5-17.1-14.1-1.7-3.2-2-5.3-1.6-10.7.5-5.8 1.5-8.7 7.3-20.6 9.1-18.5 11.2-27.9 8.4-36.4-2.5-7.4-8.2-10.9-17.9-10.9-7.2 0-7.6-1.1-2.4-6.1 8.7-8.4 9.7-17 3.4-29.5-4.5-8.6-6.4-14.5-8.5-25.6l-1.4-7.3.2 10.7zM1087 358.7c-4.8 13.8-10.1 32.1-9.9 34.7.1 1.8 7.8-20.9 11.9-35.4 2.1-7.4 3.7-13.6 3.6-13.8-.2-.1-2.7 6.4-5.6 14.5zM1051 362.2c0 2.3.5 5.6 1.2 7.5 1 2.8.9 3.8-.6 7-1 2.1-2.5 5.3-3.3 7.2l-1.4 3.4 5.4-4.7c4.8-4.1 5.5-5.2 6.1-9.4.7-5.3-.5-10.6-3-13.3-2.9-3.2-4.4-2.4-4.4 2.3zM846.7 360c-7.9.8-9.9 2.1-7.4 4.8.9 1 1.7 3.1 1.7 4.5 0 2.1.6 2.8 2.8 3.3 4.9 1.1 5.2 1.3 5.2 4.7 0 1.8.7 4.2 1.5 5.3 2.2 2.9 1.8 6.2-2.1 18.6-3.2 10.2-3.5 12.1-3 19.3 1.1 17.5 7.4 25.2 16 19.6 2.2-1.5 3.5-1.7 5.3-1 5.9 2.2 12.9.4 18.6-5 5.5-5 7.3-11.7 4.2-15.1-1.4-1.5-1.4-3.2-.4-12.8 1.8-17.3-1-32.2-7.4-39-6.3-6.7-17.3-9-35-7.2zm22.6 8.7c7.6 2.1 14.9 8.4 17.1 15 2.5 7.3 1.7 30.6-1.1 33.4-1.4 1.4-12.3-2.1-17.4-5.5-3.5-2.4-3.6-2.7-4.3-10.4-.8-10.1-2.9-16.1-7-20.3-3.3-3.4-6.3-11.9-5-14.1.8-1.2 9.5-.3 17.7 1.9zm-11.9 23c.9 2 1.5 7.7 1.8 19 .4 15.5.3 16.3-1.5 16.3-3.1 0-8.6-3.9-9.3-6.6-.4-1.4.5-6.4 2-11.7 1.4-5 2.6-10.9 2.6-12.9 0-6.9 1.9-8.8 4.4-4.1zM778.1 366.1c-9.6 4.8-12.7 8.6-14.1 17.4-1.1 7-.4 8.7 2 4.7 2.3-3.7 6.7-6.4 15.2-9.1 3.6-1.2 7.2-2.8 7.8-3.6 1.5-1.8 2.4-7.8 1.6-10.9-.9-3.6-2.9-3.3-12.5 1.5zM813.3 385.1c-1.8 4.2-6.2 17.7-9.8 30-7.8 26.3-11.9 37.7-26.7 75.2-6 15.2-10.8 28.3-10.6 28.9.9 2.6 27.2-48.9 34.8-67.9l3.2-8.3 8.8-4.6c11.4-6 18.4-11.3 18.8-14.3.7-4.9-1.5-4.1-12 3.9-9.4 7.1-12.8 9.1-12.8 7.5 0-.3 1.3-5.2 2.9-10.9 3.9-13.8 7.3-34.1 6.9-41.3l-.3-5.8-3.2 7.6zM1004.7 385.3c-.9 2.3 1 15.6 2.4 17.4 1.6 1.8 3.9 1.6 9-.7 5.3-2.3 11.6-2.5 16.6-.5 5.3 2.2 6.2 1.8 2.6-1.5-1.8-1.6-5.8-3.6-9-4.6-19-5.3-19-5.3-20-8.7-.7-2.6-1-2.9-1.6-1.4z"/>
  <path fill="#222" d="M1047.5 404.4c-5.5 2.4-7.8 6-8.3 12.6-.2 3.2.1 7.3.6 9 1.7 4.6-.1 4.7-11.6 0-6.4-2.6-22.1-6.9-43.9-12.2-33.8-8.3-33.8-8.3-47.3-8.3-12.6 0-13.8.2-18 2.5-6.2 3.5-9 8-9 14.4.1 11.4 5.9 17.6 26.5 28.1 18.2 9.2 21.5 12.2 27.6 25 2.7 5.6 5.7 10.9 6.8 11.9 4.9 4.4 15.1 3.7 26.1-1.9 2.7-1.4 5.1-2.1 5.4-1.7.2.4-1.3 3.6-3.4 7.2-8.4 14.4-8.6 22.7-.5 29.8 5.8 5.1 12 6.9 28.5 8.1 16.7 1.3 22 3 28.1 9.1 5.5 5.5 7.7 11.4 8.9 23.8.8 8.2.8 7.8.7-5.4-.2-14-.3-14.2-3.7-21-2.7-5.3-4.6-7.6-8.3-10.1-6.5-4.4-9.6-5.1-27.7-6.7-21.4-2-29-4.8-30.5-11.6-.8-3.8.7-7.2 7.1-15.3 7.7-9.9 10.5-15.5 9.7-20.1-.3-2-.7-3.6-.9-3.6-.2 0-3.8 2.3-8 5-13 8.5-25.1 10.9-32 6.4-1.4-1-4.4-5.9-7.2-11.8-7-14.4-12.4-19-32.4-27.6-11.6-5-17.5-9.7-18.4-14.6-.8-4.6 1.5-8 7.4-10.7 4-1.9 6.5-2.2 16.2-2.1 10.5 0 13.4.5 34 5.6 12.4 3.1 28.4 7 35.5 8.7 7.2 1.7 16.6 4.4 20.9 6.1 6.3 2.5 9.2 3 14 2.8 5.3-.3 6.2-.6 7.5-3 1.5-2.5 1.4-2.8-2.7-6.7-6.4-6.2-5.5-8.7 4.5-13 4.8-2 5.6-2 8.7-.7 1.9.8 4 2.4 4.6 3.6 1.8 3.3 2.3 1.7 1-3.1-1.6-6.2-5.4-9.9-9.9-9.9-2 .1-4.9.7-6.6 1.4z"/>
  <path fill="#222" d="M1070.7 413.1c-1.5 3.2-3.4 5.9-4.2 5.9-1.7 0-2 3.6-.4 4.6 2 1.2 5.1-3.3 6.6-9.6.7-3.4 1.3-6.4 1.1-6.5-.2-.2-1.6 2.3-3.1 5.6zM775.6 417.2c-1.4 5.2-1.8 17.2-1 30.4l.9 13.9.6-23c.3-12.7.5-23.1.3-23.3-.1-.1-.4.8-.8 2zM931 416.1c-4 1.7-6.9 5-7.6 8.5-.9 4.9.1 5.7 4.7 3.3 2.8-1.4 5.5-1.9 8.7-1.7 4.6.3 4.7.3 5 4.1.5 5.4 3.5 7.1 11 6.2 3.4-.4 6.5-1.4 7.7-2.5 2-1.9 2.3-1.8 15 2.6 7.2 2.5 16.7 5.4 21.2 6.5 9.8 2.3 27.5 4.1 32.1 3.3 2.9-.6 3.3-1 3-3.3-.3-2.9-.3-2.9-15.8-6.1-5.8-1.2-23.3-6.5-38.9-11.7-23.6-7.9-29.6-9.6-36-9.9-4.2-.2-8.7.1-10.1.7zM1129.5 425.6c-2.2.8-5.9 1.4-8.2 1.2-5.4-.3-6.2.6-2.8 2.8 2.6 1.7 3.2 1.7 11 .1 8.2-1.7 12.4-1.3 13.9 1.2.3.5-.7 3.1-2.3 5.8-1.7 2.6-3.3 6.1-3.6 7.8-.5 2.3.3 1.4 3.4-3.5 4.6-7.3 5.1-10.5 2-14.4-2.4-3-6.9-3.4-13.4-1zM895.4 437.9c-3.8 2-11.3 5.1-16.5 7-44.2 16-49.6 19.8-72.2 50-15.6 21-19.1 24.8-28.4 31.8-5.5 4.1-7.3 6-7.3 7.8 0 1.3.4 2.6.8 2.9 1.4.8 10.3-1.9 16.7-5.1 5.1-2.6 8.2-3.3 21-4.7 8.3-.9 21.8-2.1 30-2.6 19-1.1 26.9-3.7 35.1-11.8 13.5-13 19.9-30.7 24-65.8.3-2.6 1.4-5 2.9-6.4 2.3-2.1 3.5-7.2 1.8-6.9-.5.1-4 1.8-7.9 3.8zM895 451c0 4.7-7.1 30.5-10.1 36.5-5.7 11.7-14.5 19.7-25.7 23.6-6.2 2.2-30.6 4.8-31.9 3.5-.4-.5 0-1.3 1-2 1.1-.6 6.2-4.1 11.4-7.8 6.6-4.7 12.1-7.6 17.7-9.5 14-4.8 21.5-9.2 25.3-14.7 3.7-5.3 8.1-18.3 6.7-19.6-1.2-1.1-25 7-35 11.9-7.1 3.5-9.4 5.4-19.8 16.6C823.8 500.9 819 505 816 505c-1.9 0-1-2.3 3.2-7.9 11.3-15 20.6-22.2 40.4-31.1 14.7-6.6 28.2-13.3 30.9-15.4 2.8-2.1 4.5-2 4.5.4zm-80.9 62.7c2.1 1 3.7 2.2 3.6 2.7-.4 1.2-9.4 4.4-12.6 4.5-2.7.1-2.4-1.4 1.2-5.9 2.6-3.4 3-3.5 7.8-1.3zM1073 439.2c0 2.1 2.9 5.8 4.6 5.8 2.4 0 1.6-2.5-1.6-4.8-2-1.5-3-1.8-3-1zM524 444.7c-1.4 2.8-6.7 8.8-12.4 14.3-26.5 25.4-28.5 27.6-31.8 34.7-2.8 5.8-3.2 7.9-3.2 14.3 0 8.5.8 10.5 10.3 24.9 4.9 7.4 6 9.9 6.5 14.8.9 7.9 1.7 11.5 2.3 10.9.3-.3 1.1-7.2 1.9-15.3 1.5-17.8 4.3-28.1 11.9-44.1 4.1-8.5 5.5-12.6 5.5-15.8 0-2.4-.4-4.4-1-4.4-1.9 0-11 14.3-13.9 21.9-2.8 7.2-5.2 17.7-6.6 28.3-.3 2.7-1 4.8-1.4 4.8-.5 0-3.6-4.4-7-9.7-7.2-11.5-7.7-14.6-3.2-21.4 1.6-2.4 8.9-9.5 16.1-15.8 7.2-6.3 15.8-14.3 18.9-17.8 3.2-3.5 6.2-6.3 6.6-6.3 1.5 0-.3 18.5-2.4 25.1-1.2 3.7-4.3 9.7-7.1 13.7-5 7.1-6.2 11.6-3.9 13.9.8.8.4 2.8-1.5 7.5-5.5 13.9-5.9 30.8-1 44.9 1.5 4.3 2.4 8.2 2 8.6-.4.4-1.9-.1-3.4-1.1-6.2-4-17.2-8.7-23.7-10.1-19.5-4.1-40.1-.4-95.5 17.2-41.1 13-62.3 17.3-85.8 17.3-36 0-64.8-11.2-87.4-34-4.8-4.9-9-8.5-9.3-8.1-.7 1.2 4.4 8.8 11.3 16.8 11.9 13.8 29.9 25.8 47.2 31.6 15.7 5.2 23 6.2 44.5 6.2 24.1-.1 29.4-1 74.8-12.4 36.8-9.3 45.1-10.6 62.5-9.8 31 1.5 59.6 14 82 36 18.4 18.1 29.3 37.3 36.3 64.2 2.8 10.5 2.9 10.7 2.3 4.5-3.4-35.8-22.4-81.6-44.1-106-10.2-11.5-17.1-29.6-16-42 .8-9.4 3.2-15.1 10.9-26.6 5.4-8.1 6.8-11 6.8-14.1.1-2.1.7-6.5 1.5-9.8.9-3.3 2-14.5 2.5-24.9.5-10.5 1.3-19.9 1.6-20.9.7-2.2-.4-10.7-1.4-10.7-.4 0-1.8 2.1-3.2 4.7zM1051.5 442c1 1.1 2 2 2.3 2 .3 0-.3-.9-1.3-2s-2-2-2.3-2c-.3 0 .3.9 1.3 2z"/>
  <path fill="#222" d="M229 445.7c-6.2 2.3-8.8 10.7-7.1 22.9 2.4 16.8 8.9 29.8 22.3 44.1 11.5 12.4 13.5 15.1 15.8 21 1.8 4.5 1.9 4.6 2 1.7 0-4.9-7-17.6-17.6-31.9-18.3-24.5-22.1-31.8-21.1-40.2.7-6.3 5.8-11.3 11.4-11.3 4.2 0 13 3.7 15.2 6.3 1.7 2.2 1.3 2.1-4.9-.3-6.1-2.4-8.2-2.5-12-.5-5.5 2.8-6.3 13-1.8 22 1.1 2.2 7.5 9.6 14.2 16.5 6.7 6.9 13.9 15.3 16 18.7 2.1 3.5 4 6.3 4.2 6.3.3 0-1-4.6-2.5-8.3-1.9-4.9-6.8-11.2-17.1-22.3-5.5-5.8-11.6-13.1-13.7-16.1l-3.8-5.5 2.4-1.9c4.9-4 14.8-1.6 24 5.8 6.2 4.9 13.1 11.5 13.1 12.6 0 .4-2 .7-4.5.6-2.4-.2-4.7 0-5 .3-1.3 1.3 1 3.6 4.8 4.8 5.9 1.7 14.8 6.4 17.1 8.8 2.4 2.7 3.4 7.7 2.5 12.7-.4 2.2-.3 4.4.2 4.9.5.6.9 3.6.9 6.7 0 3.2.4 6 .9 6.3.4.3 4.6-.8 9.2-2.4 16.4-5.8 24.4-3.2 30 9.5 1.2 2.8 2.8 5.8 3.7 6.8 2.7 3 .4 3.7-8.6 2.7-12.7-1.4-19.8.5-25.6 6.9-2.4 2.6-4.9 2.6-14.8.1-8.7-2.2-14.5-4.9-17-7.9-1.7-2-6.4-3.8-7.4-2.8s-1.4 7.3-.6 8.5c.5.8 4.3 2.2 8.3 3.2 4.1 1 11.3 3.4 16.1 5.4 9.4 4 22.1 7 33.4 8.1 7.3.7 9 .1 7.8-2.8-.5-1.4-11.1-5.7-14-5.7-.7 0-2.5-.5-4-1-2.5-1-2.6-1.2-1.2-2.6 2.8-2.8 11.4-2.8 26.8.1 18.7 3.5 26.2 3.2 41.3-1.9 6-2 14.1-5.2 18-7.2 9.7-4.8 20.7-13.1 20.7-15.5 0-1.8-.2-1.8-5.2.2-15 6-27 8.9-36.5 8.9-7.5 0-12.4-1.4-15.7-4.5-1.5-1.4-3.1-2.5-3.6-2.5-1.9 0-7.1-9.2-11-19.2-4.8-12.6-8.5-16.8-15.2-17.5-5.5-.6-9.8 1.4-18.3 8.6-3.2 2.8-6.3 5.1-6.8 5.1s-.6-2.3-.1-5.3c1.3-9.4.7-18.5-1.6-23.3-2-4-3.1-4.8-12.3-9.3-7.9-3.9-12.3-6.9-19.7-13.6-5.2-4.7-11.7-9.6-14.5-10.9-5-2.4-14.6-4-17.5-2.9zm53.4 37.8c8.8 4.2 11.2 7.8 10.2 15.2-.7 5.4-4.2 13.7-5.4 12.9-.5-.3-1.2-3.2-1.6-6.3-.8-6.8-4.1-14.5-8.5-19.5-2.8-3.2-4-5.8-2.6-5.8.3 0 3.9 1.6 7.9 3.5zm40.9 24.9c4.5 1.8 9.1 7.4 11.6 14.1 2.5 6.7 2.6 7.5.5 7.5-2.8 0-7.1-3.8-10.4-9.1-3.5-5.7-8.4-8.4-13.7-7.6-6.3 1.1-4.6-3.1 2.2-5.2 4.3-1.3 6.1-1.3 9.8.3zm21.1 37.2c2.8 1.1 1.8 3.4-1.4 3.4-3 0-4.3-2.3-1.7-3.3.6-.3 1.3-.6 1.4-.6.1-.1.8.2 1.7.5zM586 469.7c0 1.5-.3 3.9-.7 5.3-.3 1.4-.2 2.2.2 1.8 1.2-1.1 2.3-8.8 1.4-9.4-.5-.3-.9.7-.9 2.3z"/>
  <path fill="#222" d="M238.2 472.5c.6 5 2.2 7.5 4.8 7.5 3.7 0 3.4-7.9-.4-10.5-3.8-2.7-4.9-2-4.4 3zM1019.7 489.5c-4.9 6.6-6.5 11.3-5.3 15.9 1.1 4.4 3.9 5 12.8 3.1 9.3-2 15.1-1.4 20 1.8 6 4.1 6.1 4.1 4.9 2-1.8-3.4-7.9-8.2-12.1-9.4-3.4-1-5.3-1-11.3.5-5.7 1.3-7.9 1.4-10.5.5-1.7-.6-3.2-1.5-3.2-2s1.6-3.3 3.5-6.2c3-4.5 7-12.7 6.3-12.7-.2 0-2.5 2.9-5.1 6.5zM1052.1 486.2c-.1 2.7 4.5 14.8 10.9 28.4 8.7 18.4 10.3 24.3 9.8 36.2-.6 13.3-5.2 26.8-8.2 24.2-.9-.7-1.7 2-3 10.8-2.3 15.1-1.9 19.2 1.1 10.2 1.2-3.6 4.2-12.4 6.6-19.5 7.3-20.8 8-33.9 2.6-49.7-1.1-3.4-5.5-13.1-9.8-21.7-4.3-8.6-8.3-16.7-8.9-18.1-.7-1.7-1.1-2-1.1-.8zM581 492.7c-.7 2.1-4.1 10.8-7.5 19.3-3.4 8.5-6.5 17.1-6.9 19-1 5.1 12.1-26.2 14.4-34.4 2.1-7.4 2-10.3 0-3.9zM680 511.6c0 2.5.4 4.3.8 4 .5-.3 3.1 1.1 5.8 3 9.5 6.9 19.3 10.9 37.1 15.4 10.4 2.6 12.3 2.6 12.3 0 0-1.1.3-2 .6-2s2.9 2 5.7 4.4c4.9 4.1 13.7 10 20.6 13.8 7.8 4.3.7 4.7-15.4.9-8.9-2.2-9.3-1.6-4.4 6.1 1.7 2.7 2.9 5.1 2.6 5.4-.3.3-2.9.1-5.7-.5-6.1-1.3-14.7-1.4-15.4-.2-.9 1.4 1.5 2.7 7.9 4 10.7 2.3 22.6 8.7 19.6 10.5-.6.4-5.5 1-10.9 1.3l-9.9.6-1.1-3.1c-1.2-3.6-4.5-5.6-7.8-4.8-3.7 1-10 7.1-12.3 12.1-3 6.4-4.6 18-3.2 23.3 1.3 4.5 5 7.8 7.7 6.8 2.4-.9 1-5.2-3.2-9.8-1.9-2.1-3.4-4.3-3.4-4.8 0-4.2 10-16 13.5-16 1.9 0 1.9.3-.5 4.2-2.2 3.7-2.9 9.1-.8 7 2.4-2.4 3.5-1.2 4.1 4.5.7 7.1 2.9 9.3 9.3 9.3 3.7 0 5.1-.7 10.3-5 6.5-5.4 8.7-9.9 7.7-15.6-.6-2.7-.4-3.4.9-3.4 2.2 0 6.1 2.7 7.9 5.5 1.4 2.1 1.2 2.8-2.2 9.6-4.4 8.8-9.5 13.2-17.6 15-4.6 1-6.2.9-10.3-.4-5.7-1.9-7.1-1-4.4 2.5 2.9 3.6 8.1 5.8 13.9 5.8 8.8 0 14.8-3.8 18.1-11.4 1.5-3.5 2.2-4 5.1-4 4-.1 6.8-3.4 7.7-9.1l.6-4-3.6 3.4c-4 3.8-6.1 3.4-5.2-1 1.1-5.1-.4-10.5-4.1-14.4-3.4-3.6-4.6-8.5-2.1-8.5 2.4 0 7.7 5.5 10.7 11 2.8 5.2 4.1 5 2-.4-1.3-3.5 0-4 6-2.2 2.8.8 8.5 1.8 12.6 2.2 6.4.6 7.8 1 9.1 3.1 2.3 3.5 1.1 9.4-3.8 19.2-4.2 8.1-4.6 8.6-13.4 14.4-11.4 7.6-23.1 13.3-30.2 14.7-7.2 1.5-14.9.2-28.7-5-10.3-3.9-15.3-5-14.1-3.1.3.5 5.7 3.7 12 7.1 6.3 3.3 11.5 6.5 11.5 7 0 1.2-6.1 2.9-13.1 3.6-4.2.5-6.5.2-8.9-1-4.2-2-4-2.1-4 .9 0 1.5-.6 2.5-1.4 2.5-1.4 0-13.7-9.4-14.7-11.3-.4-.7-.9-4.7-1.2-9-.7-9.7-3.4-15.5-9.5-20.5-2.4-2-5.6-4.6-6.9-5.7-1.8-1.5-2.6-3.4-3-6.5-.5-5.7 1.8-9.6 8.7-14.6 3-2.2 5-4.3 5-5.5 0-1.8-.2-1.9-3-.4-5.2 2.7-9.9 8.5-11.6 14.3-2.9 9.9.1 17.5 9.8 24.9 6.3 4.9 9.8 11.7 9.8 19.3 0 5.8-1.1 10.5-5.4 23-1.4 4.1-2.6 9.4-2.6 11.7 0 5.3-1.1 5.5-7.9.9-2.8-1.9-5.3-3.1-5.6-2.6-.3.4-2.4 1.1-4.8 1.5-10.3 1.7-12.7 2.6-12.7 5.1 0 1.6 1 2.9 3.3 4 6.3 3.3 15.1 9.8 29.7 21.9 15.9 13.3 18.7 16.3 22 23.9 1.9 4.6 1.9 5 .4 6.7-2.8 3.1-5 2.3-6.3-2.1-1.6-5.2-6.5-10.1-13.8-13.5-8.6-4.1-12.6-7.7-16.3-14.7-3.9-7.2-10.7-14.2-17.3-17.8-5.2-2.7-7.1-2.1-3.9 1.3 1.2 1.3 2.2 2.7 2.2 3.2 0 1-22.1-.1-26.5-1.3-7.1-2-.3-6 10.5-6.1 5.9-.1 8.7-1.2 7.6-3-1.6-2.6-17.4-.1-23.8 3.7-2.8 1.6-3 1.6-6.6-.4-4.6-2.7-5-4.5-1.9-8.6 1.3-1.8 2.9-4.8 3.6-6.7 1.4-4.2 1.4-17 .1-24.1-.8-4.5-.7-5.6.6-7.1 2-2.2 10.7-4.1 16.6-3.7l4.3.3-.3 5.9c-.3 7.9 1.9 15.2 6.3 20.4 4.1 4.7 5.5 4.7 5.5-.2 0-2.3-1.1-4.7-3.5-7.7-4.3-5.4-4.4-8.4-1-19.2 3.6-11.3 3-22.3-1.8-31-5.3-9.5-12.5-8.8-29 3.2-4.5 3.2-10.1 6.8-12.4 8-3.6 1.8-4.3 2.6-4.3 5.2 0 1.6 1.3 5.3 3 8.2 3.2 5.6 4 5.2 1.5-.7-.9-2-1.3-4.1-1-4.7.9-1.3 10.1-5.9 12-5.9 1.9 0 1.9.1-.7 5.1-3.1 6-3.5 17.2-1 26.8l1.9 7.4-4.5 4.6-4.4 4.6.6-3.5c.8-4.5 1.8-21.8 1.1-20.5-.2.5-1.1 7-1.9 14.4-.8 7.4-1.9 13.8-2.5 14.4-.7.7-2.9-.7-6.6-4.2-3.1-2.8-6.3-5.1-7-5.1-.8 0-2.7 1.1-4.2 2.4-2.7 2.3-2.8 2.8-2.7 10.8.1 6.3.7 9.6 2.4 13.8 1.8 4.2 2.3 7.1 2.1 12.2-.1 3.8.1 6.8.6 6.8.4 0 2.4-3.7 4.3-8.1 1.9-4.4 4.3-8.5 5.3-9 1.3-.7 1.7-2.2 1.7-5.9 0-3.6.4-5 1.4-5 2.1 0 3.3 2.1 4.1 7.5.3 2.7 2.4 10.6 4.5 17.5 4.3 14.4 5.6 20.5 4.2 21.4-1.2.7-12.8-6.9-13.5-8.8-.3-.8 1.1-3.2 3.4-5.4 2.1-2.2 3.9-4.5 3.9-5.2 0-1.8-3-2.3-5.6-1-3.4 1.9-5 7.8-3.8 14.1.6 2.8.7 4.9.2 4.9-.5 0-2.5-1.2-4.4-2.6-4.3-3.4-11.4-4.4-13.4-1.9-2.1 2.6-.1 4.7 6.4 6.6 10.7 3.2 14.8 7.5 21 21.9 2 4.7 5 10.2 6.7 12.3 3.4 4.2 3.1 5.7-1.1 5.7-6.7 0-12.8 10.2-13.3 22.3-.2 5.1.1 6.1 1.3 5.8.8-.2 4.9-1.2 9-2.1 13.8-3.1 15.8-5.2 14.7-15.5-.3-2.9-.3-5.6 0-5.8.5-.6 10.2 3.1 11.8 4.5.5.5-1.5 3.1-5.1 6.6-5.7 5.4-8.8 9.9-23 33.4-15.4 25.5-23.2 38-28.5 45.8-6 8.7-13.7 17.6-14.5 16.8-.2-.3-.7-6.3-.9-13.4-.7-16.7-.8-17.3-4.4-28-1.7-5.1-3.1-10.5-3.1-12 0-1.6 1.4-10.3 3-19.2 1.7-9 2.9-18.7 2.9-21.5l-.2-5.2-.8 6.4c-1.3 9.9-2.5 9.8-4-.2-.5-3.7-1.6-8.5-2.4-10.9-.8-2.4-1.5-5.3-1.5-6.6 0-1.2-.4-2.2-.8-2.2-.5 0-3.8-2.8-7.3-6.3-3.5-3.4-9.3-8.6-12.8-11.6-18.1-15.4-24.6-43.2-13.8-59.2 3.4-5.1 5.2-4.9 8.2 1 3.9 7.7 3 10.9-1.9 7l-2.6-2v2.8c0 5.8 7.7 20.8 18.1 35.3 6.2 8.7 8.7 13.7 11 22.7 1 4.2 2.2 7.9 2.5 8.2.3.3.4-5.5.2-12.9-.4-11.9-.8-14.3-3.2-20.3-1.5-3.8-2.6-7.1-2.3-7.3.9-1 4.7 4 7.7 10 3.4 6.8 3.9 4.8 1-4-2.1-6.2-4.5-9.5-22.2-31.5-8.8-10.9-10.8-14-10.8-16.6 0-1.8-.3-3.3-.6-3.3-2.2 0-7.1 5.2-9.3 9.9-2.5 5.3-2.6 6.4-2.5 20.6 0 13.1.4 16.3 2.8 25 5.2 19.3 9.3 25.4 27.8 42.1 9.2 8.4 10.3 11.3 10.5 28.4.2 12.6 0 14.7-1.4 15.8-1.5 1.1-1.6 1.6-.4 4.5.7 1.7 3.2 8.4 5.4 14.7 3.5 10 4 12.9 4.5 22.5.8 18.5-3.1 29.7-14.2 41-10.7 11-22.6 17.3-36.3 19.5-3.7.6-7.5 1.8-8.5 2.7-1.5 1.4-2.1 1-6.7-3.8-2.7-2.9-6-7.1-7.2-9.4l-2.3-4.2 3.7-16.9c5.6-25.6 8.9-31 27.8-46.5 12.2-10 12.9-12.3 4.3-13.3-8.2-.9-15.9-3.8-35.4-13.1-17.5-8.2-24.1-10.8-31.3-12.1-3.3-.6-3.8-.4-3.5 1 .2 1.1 3.2 2.7 9 4.6 11.8 4 25.4 10.8 24 12.2-1.5 1.5-16.8-2.7-22.4-6.2-5.4-3.3-6-2.5-2.2 2.5 5.1 6.8 16.4 12.1 32.8 15.6 3.2.7 6 1.8 6.2 2.4.3.6-1.5 3.1-3.9 5.6-2.4 2.4-4.8 5.3-5.4 6.3-1.2 2.2-3.3 1.3-3.3-1.4 0-2.4-.5-2.7-9.6-5.1-10.5-2.7-19.7-7.5-24.3-12.5-2.2-2.3-5.9-7.7-8.2-12-4.3-7.9-6.3-8.3-3.9-.9 1.5 4.6.6 5.9-3 4-6.7-3.4-6.5-1.9.8 7.9 3.2 4.2 7.8 11.4 10.2 15.9 2.3 4.5 5.4 9.7 6.7 11.5l2.4 3.2-2.5 6.3c-2.4 6.1-5.7 20.8-5.5 25.1 0 1.2.8 0 1.8-2.9 2-5.6 6.5-14.7 11-22.4 2-3.4 3.1-6.5 3.1-9 0-5.1 1.6-6.3 5.8-4.5 2.3.9 3.1 1.8 2.6 2.6-.4.7-2.2 3.5-3.9 6.3-4 6.4-6.9 13.2-9.4 22.5-3.1 10.9-2.5 11.7 1.2 1.9 1.9-4.8 4.8-11 6.6-13.8 5.3-8.1 17.1-18.1 17.1-14.3 0 .5-.7 3.1-1.5 5.8-.8 2.8-2.4 9.3-3.4 14.5-3.7 17.6-7 23.5-17.8 32-11.1 8.6-14.3 12-14.3 15.1 0 1.7-.5 2.8-1.3 2.8-4.2 0-12.8 3.9-21.4 9.5-5.4 3.6-9.9 6.1-10.1 5.5-.2-.5.8-3.5 2.2-6.6 3-6.4 3.2-8.4 1.1-8.4-1.5 0-2.2-2-2.7-7.5l-.3-3H393c-8.5.1-19.9.7-25.3 1.4-11.4 1.6-29.3.9-38.3-1.5-15-3.9-25.1-13.6-32-30.9-1.4-3.5-1.7-3.8-2.4-2-1.5 3.5-1.1 9.4 1.1 15.3 2.4 6.5 4.9 15.8 4.9 18.4 0 2.6-2.6 2.3-12.5-1.3-5.9-2.2-9.9-4.3-12.6-6.9l-3.9-3.7.6-13.9c.8-16-.8-25-5.1-29.3-3.6-3.7-4-2-.5 2.4 3.9 4.9 4.6 9.3 3.1 19-3.2 20.6-3.4 23.6-2.3 31.6 1.3 9.2 3.6 14 8.9 19 6.7 6.4 12.7 8.3 21.5 6.7 3.4-.6 7.9-6.8 8.5-11.8.4-2.8 0-4.1-2.1-6.3-2.8-3-3.2-4.2-1.5-5.2.5-.4 3.6 1.8 6.8 4.8 3.1 3 7.6 6.4 9.9 7.6 2.3 1.2 4.2 2.4 4.2 2.7 0 1.7-5.8 7.4-7.6 7.4-4.1 0-3.9 11.2.2 16.5 1.3 1.7 1.6 1.8 2.4.5 4.8-8.3 12.8-15 22.9-19 4.6-1.8 7.4-2 24.9-2 16.5 0 24-.5 33.6-2.3 2.9-.5.5 3-4.4 6.4-7.3 5.1-16.9 8.8-37.9 14.4-14.9 4.1-18.4 4.7-24.7 4.3-6.9-.3-7.4-.2-7.4 1.7 0 1.1.9 3.3 2 5 1.1 1.6 2 3.3 2 3.7 0 1.3-3.4.9-9.3-1.1-5.9-2.1-8.4-1.3-4.4 1.4 1.3.8 5.5 2.6 9.4 4 25.5 8.9 48 4.1 78.3-16.4 13.2-9 18.8-11.9 31.4-16.8 12.8-4.9 13.8-5.6 13-9.8-.6-3.6-.5-3.7 6.7-4.9l3.6-.6-.5 5c-.4 4-.1 5 1 5 2.7 0 11.8-10.8 14.9-17.6 1.6-3.5 3.3-6.3 3.8-6 .4.3 2.4 3.8 4.4 7.8 2 4 5.6 9.7 8.1 12.6 2.5 3 4.6 5.6 4.6 5.9 0 .2-6 .1-13.4-.2-15-.8-18.1-.4-18.9 2.5-.4 1.6-1.4 2-4.4 2-5.6 0-8.3 1-8.3 3 0 1.8 3.5 3 8.6 3 4.7 0 12.4 2.2 15.9 4.5l3.5 2.4V943c0-4 1.5-3.9 12.6.6 11.5 4.6 18.4 8.4 18.4 10 0 .7-2.8 3.2-6.2 5.6-8.3 5.6-15.4 12.3-18.3 17.3-1.3 2.2-4.1 9.2-6.3 15.6-5.4 15.6-11.3 26.9-14 26.9-.7 0-1.4-1.2-1.7-2.8-.3-1.5-2.4-8.8-4.5-16.2-5.2-18-6-21.7-7-34-1.2-13.5-2.3-17.3-6.5-21.4-4-4-9-5.2-15.9-3.6-6.9 1.5-13.4 5.1-28.6 15.7-7.4 5.2-16.8 11.1-21 13.1-6.6 3.2-8.6 3.7-17 4-5.2.2-10.3.8-11.2 1.4-2 1-2.5 7.9-.8 12.2 1.3 3.6 7.8 6.6 14.2 6.6 9.6-.1 19.4-5.4 39.7-21.8 10.9-8.7 18.8-13.8 19.7-12.9.4.3-.1 3.5-1 7.1-1.4 5.3-1.5 7.4-.5 10.8 1.3 5.2 3 7.2 8.9 10.6 2.5 1.4 4.7 2.7 4.9 2.9 1.7 1.2-10.1 8.3-14 8.3-.8 0-3-2-4.9-4.5-1.9-2.5-3.7-4.5-4.2-4.5-1.5 0-.8 2.2 1.7 5.2 4.4 5.3 3.8 5.5-18 9-7.7 1.2-15.3 2.2-17 2.2-1.6.1-3.4.6-4 1.3-.5.7-5.4 3.5-10.8 6.3-10.1 5.2-14.6 6.1-20.4 3.9-4.2-1.5-10.3-6-10.3-7.5 0-.7 1.6-2.6 3.6-4.2 2.6-2.2 3.5-3.6 3.2-5.3-.6-4.3-4.5-2.5-9 4.2-1.2 1.8-2 2.1-3 1.4-2.6-1.8-19-14-21.1-15.6-1.8-1.4-1.9-2-1-5.7.6-2.3.7-3.9.2-3.6-.5.3-.9 1.1-.9 1.8 0 1.8-3.5 4.8-4.4 3.9-.4-.5-5.6-1-11.4-1.3l-10.7-.5.3-10c.4-11.5-1.1-16.9-6-21-3.1-2.6-13.2-5.9-21-6.9-4.9-.6-14.4-4.8-18.8-8.4-2.4-2-2.4-2.1-1.2-9.1 2.4-14.4 1-22.3-5.4-29.1-2.4-2.6-4.4-5-4.4-5.4 0-.3 2.2-.6 4.9-.6 8.1 0 11.2-1 10.9-3.3-.3-1.8-1-2-8.8-1.8-4.7.1-9.1-.3-9.9-.8-1.2-.8-.7-3 2.9-13.7 4.6-13.6 6-23.6 4.5-33.1l-.8-4.8-1.2 8C223.8 856 216.1 878 214 878c-.6 0-1-2.1-1-4.7 0-6.4 5.1-45.6 6-46.6.4-.5 5.2.8 10.6 2.7 24.9 9.2 27.8 12.1 30.4 30.6.7 5.4.8 4.3.5-6.5-.4-15.1-1.6-19.6-6.6-24.6-4.6-4.6-11.7-7.3-23.4-8.9-4.9-.7-9.5-1.6-10.1-2.1-.6-.5-1.4-4.5-1.8-8.9-.3-4.4-1.5-10.6-2.5-13.9-1-3.2-1.6-6.3-1.2-6.8.3-.5 5.1-3.9 10.6-7.7 11.9-8 13.4-9.6 12.8-13.1-.3-1.4-.7-2.5-.9-2.5-.3 0-6.2 2.2-13.2 4.8-7 2.7-14.5 5.5-16.7 6.3l-4 1.5-.3 6.4c-.3 6.5-.2 6.5 4.2 11.2 4.2 4.5 8.6 13.5 8.6 17.8 0 1-.5 3-1.1 4.4-1 2-.9 3 .5 5.2 2 2.9 1.9 5.3-1.4 27.9-2.9 20.4-3.3 25.7-2 29 .7 1.7 1.2 8.3 1.3 15v12l-3.2-.3c-4.9-.5-22.2-5.6-22.4-6.6-.1-.5 2-1.4 4.8-2.1 3.3-.9 5.9-2.4 7.8-4.5 2.4-2.7 2.8-3.8 2.5-8.2l-.3-5.1-7.7-.3c-4.3-.1-10.3-1-13.4-1.9-5.7-1.6-12-5.1-12.8-7-.2-.6.1-3.7.6-7 .9-5.7.5-27.9-.8-44.8-.3-4.2-.3-9.2 0-11.1.8-4.4 4.5-7.9 9.8-9.5 2.4-.8 7.3-2.9 11.1-4.7 6.4-3.3 6.7-3.6 6.7-7 0-3.7-1.4-5.5-8-10.6-1.9-1.5-3.2-3-2.8-3.3.3-.3 3.7-1 7.4-1.6 31-4.5 49.3-11.2 62.6-22.9 3.3-2.8 4.8-5 4.8-6.6 0-1.3-.2-2.4-.4-2.4s-4 1.5-8.3 3.3c-18.9 8.1-38.4 13.5-59.5 16.7-7.3 1-15.6 2.6-18.4 3.5-13.4 4-20.2 15-17.8 29.2l.8 4.8.7-5.2c.3-2.8 1.7-6.6 2.9-8.3 2.1-3 9.2-7.4 10.3-6.4.3.3-.5 2.9-1.8 5.7-4 8.7-4.9 19.7-3.1 37.7 2.1 20.5 2 28.8-.4 41-2.5 12.5-2.5 18.3-.1 23.5 1.7 3.8 5.8 8.1 9.9 10.4.9.5 1.4 1.2 1 1.6-.7.8-21.9-3.3-23.1-4.4-1.1-1.1 2.4-17.1 6.6-30.6 3.5-11.2 3.8-16.4 1.5-21.2-.8-1.6-.8-3.4 0-6.5.6-2.3 1-4.4.8-4.5-.8-.8-3.7 9.1-3.3 10.9 1.2 4.6-8.1 10.4-27.1 16.9-14 4.9-20.1 7.9-25.3 12.6-6 5.4-9.1 12.3-9.5 20.8l-.3 7 1-5.5c2.4-13.5 9.8-19.1 33-25 8.5-2.1 16.4-4.2 17.7-4.5 2.9-.9 2.8 0-.2 11.8-4.5 17.3-5.9 43.7-2.8 51.8l1 2.6 26.9.6c14.7.3 30.4.2 34.8-.2 4.4-.4 8.5-.6 9.1-.4.7.2 1.4 4.5 1.8 10.2.4 5.4 2.2 16.3 4.1 24.2 1.9 7.9 3.5 15.6 3.5 17.1 0 3.3 1.8 4.4 9 5.2 8.6 1.1 11 1.7 11 2.8 0 1.2-19.4.3-28.4-1.4-7-1.3-26.1-10.7-26.1-12.8 0-1.5 7.5-4.9 11.1-4.9 2.5-.1 3.8-2.3 2.2-3.9-1.4-1.4-8.2.3-13.9 3.5l-4.7 2.7-7.6-5.7c-4.2-3.2-7.6-6.3-7.6-7 0-1.4 8.1-7.1 12.3-8.7 1.6-.5 5.3-1 8.3-1 4.7 0 5.4-.3 5.4-1.9 0-2.5-3.7-5.1-7.3-5.1-4.4 0-8.9 2.3-16 8.4-3.7 3.1-7 5.6-7.3 5.6-2 0-11.3-7.5-11.8-9.5-.4-1.7-1.1-2.1-3-1.8-2.9.6-8.5-2.4-26.6-14.2-13.6-8.8-17-12.2-17-16.7 0-2.2.7-3.3 3.1-4.6 5.5-3 8.7-6.2 9.9-9.7 2.3-6.9-2.7-9.7-9.6-5.4-4 2.4-6.4 5.8-8.7 12-1.6 4.3-1.6 5.1-.1 11.5.8 3.8 2.5 8.4 3.6 10.1 1.1 1.8 9 8.5 17.6 15 12.3 9.2 20 16 35.7 31.8 11 11.1 23.4 22.7 27.5 25.7 19 14.1 36.7 19.9 46.6 15.2 6-2.8 14-14.9 15-22.7.8-5.4 1.4-5.6 8.5-2.6 6.3 2.7 6.3 4.7.4 10.5-4.6 4.4-4.6 4.4-4.3 10.6.3 5.9.4 6.2 3.3 7 5.2 1.3 28.5 3.1 34.6 2.5 4.8-.4 5.9-.2 6.4 1.1.2 1 3.9 6 8 11.2 7.6 9.5 17.5 27.6 17.5 31.9 0 1.7-.6 2.1-3.4 2.1-5.5 0-26.7-3.9-29.9-5.5-1.6-.8-3.2-1.3-3.6-1.1-1.2.7-32.2-1.3-33.8-2.2-1.7-1-1.8-.9 4.6-6 1.8-1.4 2.5-3.1 2.8-6.9 1-9.8-2.9-15.3-11-15.3-4.3 0-7.2 2.8-10.6 9.9-2.2 4.9-2.6 6.9-2.6 16.3 0 12.7 1 14.8 9.5 19 4.3 2.1 8.5 3.1 18.5 4.3 13.2 1.6 24.8 4.6 27.5 7.1 1.2 1.2.8 1.4-2.8 1.4-8.6 0-32.6-3.2-41.8-5.5-12.7-3.2-19.9-6.7-24.5-11.7-3.7-4-3.8-4-3-1.1 2.4 8.5 8.3 14.8 18.2 19.9 9.2 4.6 19 7 43.4 10.4 31.2 4.5 43.5 8.2 54.4 16.5 2.5 2 4.9 3.6 5.4 3.8.7.2 5.7-6.1 17.9-22.6 5.1-6.8 6.8-8.1 6.8-5.1 0 1.3.6 1.5 2.8 1 1.5-.4 8.9-1 16.5-1.3 14.2-.6 23.8.4 35 3.4 3.2.9 6 1.3 6.4.9.4-.3.7-2.9.7-5.6.1-4.6-.2-5.3-3.4-7.7-10.3-7.9-13.4-14.2-12.8-25.7.2-4.1.9-8.1 1.6-8.8 1.5-1.5 12.2.1 24.7 3.7 4.4 1.2 9.2 2.5 10.7 2.9 2.1.5 3.5 2 5.7 6.4 6.1 12.2 18.8 19.9 40.6 24.8 5 1.1 16.8 1.8 42 2.4 27.3.7 37.5 1.3 46.5 2.9 23.4 4 38.2 10.4 48.6 20.8 3.5 3.5 6.6 6.3 7 6.3.4 0 .4-1.8.1-4-.3-2.2-.1-4.3.4-4.6 1.9-1.1.8-5.5-3.3-13.4l-4.3-8.2.3-18.6c.4-27.2-1.6-36.8-13.3-63.9-12.3-28.5-22.3-37.1-54-46.3-7.7-2.2-14.8-4.3-15.7-4.6-1.2-.3-1.8 0-1.8.9 0 1 4.5 3.1 13.3 6.2 26.9 9.6 38.8 16.6 47.3 27.9 11.8 15.7 20.4 42.1 20.4 62.7 0 6.6-.3 8.9-1.3 8.9-2 0-4.7-5.4-4.7-9.3 0-2.4-2.6-9.1-7.4-19.5-4.1-8.7-9-20.4-11-26-1.9-5.6-4.2-11.5-5.1-13.2-4.4-8.6-14.3-15.5-25.5-17.9-3-.7-10.6-1.2-16.7-1.2l-11.3.1v-4.3c0-2.3-.6-5.1-1.3-6.2-.7-1.1-2.5-5.2-4.1-9.2-3.5-9.2-8.6-15-18.5-20.8-8.8-5.1-11.2-7.2-9-7.9 13.5-3.9 13.9-4 15.2-2.4 1 1.3 4.6 1.7 18.7 2.1 9.6.4 21.6 1.3 26.5 2.1 26.1 4.4 46 16.8 53 33.1.9 2.2 2.5 8.5 3.5 14l1.8 10 .1-9.3c.3-29.4-12.2-47.2-37.9-53.9-7.5-1.9-30.6-2.4-50.7-.9-7.7.5-12.3.5-12.3-.1 0-.5 1.9-2.5 4.1-4.3 3.2-2.5 7.5-4.3 17.8-7.3 12.3-3.6 15-4 29.1-4.6 13.5-.5 15.9-.9 19-2.8 4.5-2.8 8-7.5 8-10.8V889h-16.5c-18.5 0-23.4 1.1-35.2 7.6-3.4 1.9-6.4 3-6.7 2.5-.3-.4.7-4.4 2.3-8.7 1.6-4.4 3.4-10.4 4-13.5 1.1-5 1.4-5.6 3.4-5.2 3.4.7 13.8-10.8 22.5-24.9 4-6.3 14.1-21 22.5-32.6C620.7 790 631 774 631 771c0-2.7 2.2-3.4 7-2.2 7.9 2 4.2-1.6-8.2-8-16.3-8.3-25.4-17-31.7-30.1-2.3-4.8-4.1-9.3-3.8-10 .2-.6 5.4 3.7 11.6 9.7 13.4 12.7 19.8 17.9 26.2 21.2 9.5 4.8 16.8 4.2 22.8-2 2.4-2.5 3.2-4.1 2.9-6.2-.4-3.9-3.7-5.3-15.6-6.5-6.5-.7-11.3-1.8-14.7-3.4-5.3-2.6-17.5-12-17.5-13.5 0-.5 1.5-1.7 3.3-2.7 4.8-2.5 15.3-2.2 26.7 1 17.3 4.7 23.4 4.4 29.8-1.5l2.3-2.2 10 5c10.8 5.2 14.9 8.9 14.9 13.2 0 5.9 1.2 5.9 11.2 0 5.1-3.1 12.3-6.6 16.1-7.9l6.7-2.4 6.5 3.4c8.2 4.2 16.1 12.7 23.2 24.7 2.9 4.9 5.7 9.6 6.2 10.4.8 1.3 1.2 1.1 2.7-1 2.9-4.1 10.4-10.8 16.8-15 8-5.2 16.3-9.6 17-8.9.3.3.7 4 .8 8.1.3 7.2.1 7.8-2.5 10.6-3.3 3.4-7.4 4.8-17.7 5.7-9.2.9-14.3 2.8-19.3 7.3-5.9 5.1-12.4 9-16.6 9.7-4.8.8-12.6-1.4-20.1-5.6-8.8-5-16.3-8.6-20.8-10-2.4-.7-4.2-1.8-4.2-2.6s1.2-3.5 2.6-6.1l2.6-4.7-3.1 3.5c-1.7 1.9-3.3 4.3-3.6 5.2-.8 2.3-3.8 2.3-10.9-.1-7.5-2.6-11.2-4.9-12.5-7.7-.8-1.9-.5-3.4 1.9-8 3.3-6.2 4.1-10.4 1.4-6.9-.9 1.1-2.8 4.4-4.1 7.4-2.1 4.3-2.4 6.3-2 10.2.7 5.3-.3 6.1-3.5 3.2-1-.9-1.8-1.2-1.8-.7 0 1.8 3.9 7.3 5.9 8.4 1.2.6 2.1 2 2.1 3 0 2.2.2 2.3 13.5 13 11 8.8 14.4 10.8 26.4 15.6 7 2.8 10.7 4.9 14.2 8.3 4.1 3.9 7 9.3 5.8 10.6-.2.2-4-.5-8.4-1.5s-15.4-2.3-24.5-2.9c-23-1.4-26.9-3.1-32.8-13.7-3-5.4-3.2-5.6-2.7-2.4 2.5 14.3 8.8 22.9 18.3 24.9 2.9.6 7.3 1.1 9.7 1.1 2.4 0 9.3.6 15.2 1.4 19.4 2.6 22.1 2.8 24.2 1.6 1.2-.6 2.1-1.5 2.1-2 0-1 3.3-5.2 7.6-9.5 1.8-1.7 6.8-5.1 11.2-7.4 4.7-2.4 8.3-5 8.7-6.1.9-2.9-1.1-5.7-5-7.1-1.9-.7-3.5-1.8-3.5-2.4 0-1.7 12.3-10.5 14.6-10.5 2.4 0 1.5 1.7-2.1 4.1-2.2 1.5-3.5 3.2-3.5 4.6 0 2.8.4 2.8 4.4.4 5.9-3.7 18.2-7.1 28.6-8 11.5-.9 14.1-2.2 17.7-8.7 1.2-2.2 2.5-6 2.9-8.4l.6-4.5-2.3 4.4c-3 5.7-6.5 8.2-12.3 8.8-5.1.6-5.4.2-2.9-4.8 1.2-2.4 1.9-7.5 2.4-17.4.4-7.7.8-14 .8-14.1.1-.1 2.5-1.7 5.4-3.6 2.8-1.9 9.5-6.7 14.7-10.7 5.2-3.9 12.4-8.6 16-10.4l6.5-3.3.9-5.7c1.4-8.4-1.1-19.1-7.2-31.8-5.8-12.1-7.9-18.1-9.1-26.4l-.9-6-.1 7.6c-.1 8.9 1.8 16.2 7.8 29.1 5 10.7 7.1 17.9 7.1 23.9v4.8l-4.7 1.4c-2.7.8-5.2 1-5.8.5-.5-.4-.8-2.8-.6-5.3.2-3.2-.2-4.7-1.2-5.1-.8-.3-5.1.9-9.6 2.7l-8.1 3.2-3.7-3.8c-4.6-4.8-10.4-7.3-20.6-9.1-7.7-1.4-8.1-1.3-9.4.6-.8 1.1-1.9 2-2.6 2-.6 0-4.8 1.1-9.4 2.5-6.3 1.9-11.1 4.5-20.4 10.6-13.2 8.9-23.9 14.2-27.3 13.7-1.7-.3-.8-1.3 4.9-5.5 9.8-7.3 31-19.9 38.5-23 3.5-1.4 9-2.8 12.2-3 4.8-.5 5.8-.9 5.8-2.4 0-1.3-1.4-2.2-5.2-3.4-12.3-3.6-22.6-1.1-49.8 12-10.7 5.2-20.9 9.7-22.6 10.1-2.8.5-3.2.3-4.9-3.5-1.1-2.5-1.5-4.5-.9-4.9.5-.5 3.2-1.4 5.9-2 2.8-.7 11.1-4.2 18.5-7.7 15.8-7.6 23-9.5 36-9.5 10.4 0 20.5 2.2 29.4 6.5l5 2.4 4.2-3.9c4.2-3.8 6.3-4.5 16.4-5.2 3.3-.3 3.5-.5 3.8-4.5.2-2.8-.4-5.6-1.9-8.4-2.7-5.4-2.1-11.6 2-20.4 3-6.5 9.7-14.9 11.2-14 .4.3 1.3-1.3 1.9-3.5.8-2.9 3.7-6.8 11.1-14.7 10.4-11 11.9-13.3 11.9-18.3 0-5.3-3.3-6.4-21-7.1-8.5-.3-16.5-1-17.7-1.4-2.1-.7-2.3-.4-2.3 3.4 0 6.4 2.5 7.5 18.5 7.9 7.1.2 13.4.7 13.9 1.2 1 1-8 11-9.9 11-.6 0-1.7-1.1-2.3-2.5-.6-1.4-1.9-2.5-2.7-2.5-4.1 0-10.9 5.7-13.8 11.5-.8 1.6-2.7 8.4-4.1 15-3.4 14.9-6.4 21.8-10.5 23.9-3.2 1.7-10.5 1.9-20.3.7-6.2-.8-8.1-1.8-5.8-3.1 5.3-3 24.5-17.8 26.3-20.4 1.5-2.1 2.2-4.9 2.5-9.6l.4-6.5-2.7 5.2c-4.5 9-17 18.4-32.7 24.9-6.3 2.6-6.7 2.9-7 6.2-.3 3.9-.9 4.3-9.2 6.9-3.3 1-6.1 2.3-6.3 2.9-.2.6 2 2.1 4.8 3.3 3 1.2 4.9 2.5 4.3 3-.5.4-4.9 1.7-9.8 2.9-6 1.5-13.1 4.3-22.5 9.1-14.4 7.3-22.2 10.1-28.1 10.1-2.9 0-5.5-1.3-12.1-6.1-4.6-3.3-8.4-6.6-8.4-7.2 0-2.4 21.6-5.7 37.3-5.7 8.2 0 11.8-1.9 14.3-7.6 1.1-2.4 2.4-4.4 2.9-4.4 1.8 0 6.9-5.1 7.2-7.3.3-1.8 1.3-2.3 7.3-3.3 11.6-2 21.4-7.2 33.1-17.5 3.4-3 7.5-6.2 9.2-7.1 9-4.9 12-28.9 5.9-48.1-1.4-4.2-2.1-7.9-1.7-8.2 1.5-.9 13.2.8 14.5 2.2 1.2 1.1 1.5.6 2.1-3.4.4-2.6.3-5.3-.3-6.2-.6-1-7.3-3.1-17.6-5.7-27.2-6.9-38.5-11.3-51.2-20-3.6-2.4-6.7-4.4-7-4.4-.3 0-.5 1.6-.5 3.5s-.4 3.5-1 3.5c-.5 0-4.2-1.3-8.2-2.9-4-1.5-11.1-4.1-15.8-5.6-10.4-3.4-18.1-7.2-24.3-11.9-2.6-2-4.9-3.6-5.2-3.6-.3 0-.5 2.1-.5 4.6zm62.4 76.4c3.5 1.3 3.3 2.3-1.1 4.4-3.5 1.7-3.8 1.7-5 0-3.1-4.3.2-6.7 6.1-4.4zm-110 20.6c2.8 1.7 3.9 5.3 3 8.9-.9 3.4-2.6 2.7-3.7-1.6-.5-1.9-1.5-4.1-2.3-5-3.1-3.5-1.1-5.1 3-2.3zm183.4 45.6c-.2 5.2-.6 6.3-2.2 6.6-3.9.8-4-.9-.1-11.6.2-.6.9-1.2 1.5-1.2.7 0 1 2.3.8 6.2zm-107.1-1.6c-.9.9-2.8-.6-2.1-1.8.4-.6 1-.6 1.7.1.6.6.8 1.3.4 1.7zM526 691.2c2.5 4.2 2.5 5.1 0 3.8-2.4-1.3-4.3-4.7-3.5-6 .9-1.5 1.4-1.3 3.5 2.2zm272.5-1.6c4.9 1.1 12.9 5 14.8 7.1 2.1 2.4 1.4 3.1-5.1 5.5-7.6 2.9-16.5 8.6-24 15.3-4.8 4.2-8.1 6.5-9.7 6.5-1.4 0-5.4-2-9.1-4.5-5.9-4.1-7.1-4.5-12.5-4.5-3.3 0-5.9-.4-5.9-1 0-1.4 14.7-12.1 19.7-14.4l4.1-1.8 5.6 4.1c5.8 4.3 7.5 3.7 3-1-3.1-3.3-2.7-5.4 1.3-6.2 1.5-.3 4.8-1.9 7.3-3.6 2.5-1.7 5.2-2.9 6-2.6.8.2 2.9.7 4.5 1.1zm-138.3 4.1c.9 1 3 4.7 4.8 8.2 3.9 7.8 3.2 9-5.6 9.7-6.3.6-19.5-2.2-20.1-4.2-.2-.6 1.4-1.6 3.6-2.3 2.7-.8 5.4-2.8 8.5-6.4 2.5-2.8 4.6-5.5 4.6-5.9 0-1.4 2.7-.8 4.2.9zm-46.1 7.7c3.1 1.2 5.7 2.5 5.7 3.1.1.5-1.4 1.5-3.2 2.2-1.9.6-4.6 1.9-6.1 2.9-3.3 2.1-4.2 1.3-5.4-5.1-1-5.6-.6-7 1.8-5.9.9.4 4.1 1.6 7.2 2.8zM819 712.9c0 .5-2.6 2.5-5.7 4.4-6 3.5-33 17.7-33.8 17.7-.3 0-.5-.8-.5-1.7 0-2.4 8.2-9.8 14.2-12.9 6.4-3.3 20.5-8.2 23.6-8.3 1.2-.1 2.2.3 2.2.8zm-59.5 13.7c8.8 5.9 14.5 10.7 14.5 12.4 0 2.3-4.5 5.2-7.3 4.8-1.5-.2-4.2-3.3-8.4-9.7-3.5-5.1-6.3-9.5-6.3-9.7 0-1.3 4.1 0 7.5 2.2zm-65.5 41c7.8 3.2 26.8 12.7 29.5 14.8 1.9 1.5 1.9 1.5-.8 1.6-5.8 0-17.5-3.4-24.9-7.3-10-5.2-13.3-7.9-12.5-10 .8-2.2 1.2-2.2 8.7.9zm42.3 20.9c2 .8 5.1 1.5 6.9 1.5 5.7 0 6.5 1.3 3.3 5.4-3.9 5.1-6.6 4.8-11-1.2-3-4.1-4.4-7.2-3.1-7.2.2 0 2 .7 3.9 1.5zm-223.5 37.7c-.6 1.8-2.8 2.1-2.8.4 0-.9.7-1.6 1.6-1.6.9 0 1.4.5 1.2 1.2zM490 846.5c0 .3-.9 2.4-2.1 4.7-1.2 2.3-4.1 11.9-6.5 21.5-4 16.1-6.9 24.2-8 23-.8-.7 4.4-27.3 6.8-35 2.1-6.7 6.9-14.7 8.8-14.7.6 0 1 .2 1 .5zM226.3 919c2.7 1.3 2.8 1.6 2 6.4-1.4 8.9-.6 20.1 2 26.6 4.3 10.6 10.3 15.7 22.2 19 3.9 1.1 10.2 3 14 4.3l7 2.3.1 7.6c.2 9.9 1.1 14.8 2.9 14.8.8 0 3.9-1.1 7-2.5 8.2-3.6 11.4-3.9 15.2-1.6 2.7 1.7 3.6 3.4 6.3 12.1 2.1 6.9 4.1 11.2 6.2 13.6 4.3 4.9 24.8 21.3 27.6 22 3.3.9 5.8 0 15.2-5.6 12.5-7.4 25.8-13.7 31.8-14.9 6.6-1.4 16.5-1.5 15.7-.1-.3.5-3.4 2.3-6.9 4-7.5 3.5-17.6 10.6-30.4 21.3-11.2 9.3-15.9 11.8-23 12.3-9.1.7-12.6-2.3-19.2-16.1-4-8.5-6.2-11.6-14.5-20.5-5.4-5.9-10.9-12.8-12.3-15.8-2-3.9-2.8-4.8-3.5-3.7-.6 1.2-2.9 1.5-10.1 1.5-5.2 0-10.8-.3-12.5-.6-3-.6-3.2-.9-2.4-3.3.4-1.4.8-5.5.8-9.1 0-11.2-5.2-15.2-25.5-19.5-6.9-1.4-13-3.1-13.6-3.8-1-1.1-5.6-32-6.7-45.2-.5-5.1 0-7.9 1.2-7.3.3.2 1.9 1 3.4 1.8zm217.5 38.6c3.3 2.2 4.8 6.4 7.1 20.3 1.2 6.7 3.2 16.5 4.5 21.7 2.2 8.6 2.3 9.5.7 10.3-2.2 1.1-13 2.1-13.5 1.2-.2-.3.4-3.1 1.4-6.1 1.3-3.8 1.9-8.4 2-14.7 0-14.4-2.8-24.1-8.7-30.5-1.4-1.5-2.2-3.2-1.8-3.8.8-1.4 4.9-.6 8.3 1.6zm91.2 1.9c1.7 2.5 3 5.1 2.8 5.7-.4 1.2-12.4 5.9-13.2 5.1-.3-.3.4-2.3 1.4-4.4 1.1-2.1 2-4.7 2-5.8 0-6.4 2.9-6.6 7-.6zm6.8 19c.5 1 4.1 2 10.6 3 15.3 2.3 21.4 4.3 20 6.6-.3.5-2.3.9-4.5.9-9.2 0-34.4 7.5-38.9 11.5-2.4 2.1-21.3.7-21.8-1.6-.2-1 2.5-4.6 6.5-8.6 6.1-6.1 7.9-7.3 15.3-10.1 9.7-3.5 11.6-3.8 12.8-1.7zM505 989.7c0 1-34 43.6-38.3 48.1-7.3 7.5-14.7 8.7-31.3 5-7.5-1.6-13.3-2.2-24.1-2.2-7.9 0-14.3-.4-14.3-.7 0-2 21.8-9.2 37.5-12.4 17.8-3.5 23.5-4.1 23.5-2.2 0 .8-1.6 2.7-3.5 4.1-3.5 2.7-4.4 4.9-2.5 6.1 1.4.9 10.8-3.6 14.9-7.1 1.9-1.6 7.2-7.8 11.7-13.9 11.2-15.1 26.4-29.3 26.4-24.8zm80.8 7.9c2.4 1.6 7.2 10.3 7.2 12.9 0 1.2-1.4 1.5-6.8 1.5-3.8 0-9.3.5-12.4 1.1-5.1 1-5.9.9-12.4-1.9-6.6-2.8-11.7-4.4-22.2-7.2-6.4-1.7-4-3.5 7.1-5.4 12.7-2.2 13.8-2.3 26.2-2.5 8.6-.1 11.6.2 13.3 1.5zm-72.1 9c.3.8 0 2.7-.7 4.2-2 4.4-2.3 16-.7 23.7 2.1 9.7 2.1 9.6-13.3 8.5-17.6-1.3-22.1-2-22.7-3.5-.4-1.3 7.1-11.8 20-28.3l4.9-6.2h5.9c4.5 0 6.1.4 6.6 1.6zm16.3 2.6c11.4 3.1 10.9 2.5 10.3 11.5-.4 6.3-.1 9 1.7 14.2 1.5 4.6 1.8 6.6 1 7.1-1.5.9-20.6 2.1-22.4 1.4-.7-.3-3-3.7-5-7.6-4.3-8.3-4.6-13-1.5-21.5 1.1-3.2 2.2-6.4 2.5-7.1.4-1.4 1.4-1.2 13.4 2zm24.2 9.4c2.9 1.4 7.9 4.2 11.1 6.1 5.1 3.1 5.8 3.8 5.3 5.9-.4 1.4-.1 3.4.5 4.5 1.6 3.1.2 3.9-9.9 5.1l-9.2 1.2-3.7-4.4c-2.1-2.3-4.6-5.7-5.5-7.4-2.2-3.9-2.3-10.5-.3-13.3 1.8-2.5 2.5-2.4 11.7 2.3zm40.2-1.3c2 1.5 7.9 22.4 6.6 23.2-2.4 1.5-6.3-1.1-10-6.5-2.2-3.2-6.4-8-9.5-10.7-3-2.6-5.5-5.4-5.5-6.1 0-1.7 16-1.7 18.4.1zm-16.9 16.3c1.9 1.7 2.4 2.9 1.7 3.6-1.8 1.8-4.5.4-5.9-3-1.7-4.1.1-4.4 4.2-.6zm-104.9 12.3c1.8 1.9 19.1 7.1 28.5 8.6 5.2.8 22.1 1.9 37.5 2.5 21.9.7 29.5 1.4 35.5 2.9 12.6 3.2 25.2 9.2 34.2 16.3 3.5 2.8 5.1 5.6 2.5 4.5-9.7-4.4-20.8-8.3-29.5-10.4-10.3-2.4-12.8-2.6-50.8-3.3-41.9-.8-52.1-1.8-65.2-6.1-8.6-2.8-9.4-4.2-4.6-7.2 2.1-1.4 5.1-3.9 6.7-5.6 3.2-3.4 3.7-3.6 5.2-2.2zm-66.1 12.6c.2 7 .8 12.9 1.9 16.3.9 2.9 1.4 5.7 1.1 6.2-.3.6-4.2 1-8.6 1-9.5 0-20.9 2.2-29.6 5.7-3.5 1.4-6.6 2.3-6.9 2-.3-.3.2-2.9 1-5.8 1-3.2 1.6-9.1 1.6-14.9v-9.6l3.8-3.5c6.8-6.3 7.9-7 12.7-7.4 2.6-.2 5-.6 5.3-1 .3-.3 4.4-.4 9.1-.3l8.4.3.2 11zm-41.9 10.7c-1 6.5-5.6 15.5-11.5 22.3-7.6 8.7-9.8 10.5-13.2 10.5-3.1 0-15.9-6.5-15.9-8 0-.5 1.6-1.4 3.5-2 4.9-1.6 8.8-5.1 10.9-9.8 1.4-3.1 2.8-4.3 6.9-6 2.9-1.2 8.1-4.7 11.6-7.8 7.2-6.2 8.7-6.1 7.7.8zm261.8 14.4c1.1 2.9.6 6.5-1 7.1-1.4.5-8.4-5.1-8.4-6.8 0-.4 1.5-1 3.3-1.2 1.7-.2 3.7-.5 4.3-.5.7-.1 1.5.5 1.8 1.4zM228.8 520.1c-1 .5-1.8 2.1-1.8 3.5 0 2.6 1.1 3.3 8.7 5.3 2.8.8 5.3 2.4 7.3 4.9 3.5 4.1 3.6 3.3.4-5.5-2.7-7.4-9.5-11.2-14.6-8.2z"/>
  <path fill="#222" d="M676.5 524.1c-1 2.2-3.1 5-4.6 6.2-1.5 1.2-4.7 4.7-7.2 7.8-4.4 5.4-18.3 16.9-20.4 16.9-.6 0-3.1-1.1-5.4-2.5-8.7-5-16.3-6.7-33.4-7.4-12.1-.5-16.8-1.1-19.2-2.4-2.1-1.1-3.4-1.3-3.8-.7-1 1.6.5 11.1 1.7 10.4.5-.3 3 .3 5.6 1.4 4.9 2.1 9.1 3 27.7 5.7 17.6 2.7 17.9 2.8 12.5 8-2.4 2.3-3 3.7-3 7.2 0 4.2.1 4.3 5.8 7.2 11.6 5.9 13.8 9.8 13.3 23.6-1 28.6-1 29.3 3.2 37.9 2 4.3 3.9 7.7 4.1 7.5.3-.2-.7-4.9-2-10.4-3-12.3-3.9-21.8-2.9-31.8.8-9 1.9-9.7 5.9-3.6 2.3 3.5 2.6 4.5 1.7 7.2-2.9 9.3-2 25.2 1.9 33.2 2.3 4.8 8.9 10.5 12 10.5 4.6 0 6-15.7 2.3-24.1-1.1-2.6-3.3-5.5-4.8-6.5-6-4.2-6.2-4.6-6.4-13.9-.1-10.3-2.2-15.9-7.1-19.6-6-4.5-9-7.7-9-9.7 0-3.1 3.7-6.9 9.3-9.5 2.9-1.3 9.3-5.9 14.2-10.1 5-4.3 10.6-8.6 12.6-9.6 5.2-2.7 14.2-4.7 23.9-5.4 19.3-1.4 21.9-1.8 22.4-3.2 1.3-3.5-.4-4.4-8.8-4.4-8.8 0-10-.4-11-3.7-.9-2.9-14.2-8.5-21.6-9.1-6.6-.5-7.9-1.4-7.2-4.7.7-3.7-.2-3-2.3 1.6zM651 560.5c0 1.3-8 16.4-9 17-.6.4-2.7-.5-4.6-2-4.1-3.1-4.1-3.2 4.9-10.7 5-4.2 8.7-6 8.7-4.3zM950.5 560.8c-10.7 3.2-18.4 8-27.5 17.2-7.1 7.1-9.4 10.1-13.2 18-6.1 12.5-10.1 25.4-14.3 46.4-3.7 18.7-6.8 39.7-6.3 42.4.2.9.7-1.2 1.1-4.8 1.4-11.5 7.6-40.2 11.3-52 8.6-27.4 20.9-43.7 40-53.2 8.6-4.2 9-4.3 18.8-4.3 8.6 0 10.8.3 14.6 2.3 9.1 4.7 17 14.7 17 21.3 0 7.3-8.8 13.9-21.5 15.9-11.7 1.9-18.5-.5-18.5-6.5 0-3.6-1.3-4.7-2.4-1.9-1.1 2.8-.6 9.4.9 12.3 3.4 6.6 11.6 10.8 19.2 9.7 16.3-2.2 26.3-14.8 25-31.5-1-13.6-7.7-25-17.3-29.7-7.3-3.6-18.1-4.2-26.9-1.6z"/>
  <path fill="#222" d="M704 563c-7 2.4-11.4 7.1-13.6 14.6-2.8 9.6-.8 20 5.2 27.9 2.7 3.6 5.4 4.6 5.4 2.1 0-2.8-3.2-10.2-5.9-13.6-5.2-6.5-5.3-7.3-2.5-12.3 2.8-5.2 9.1-9.6 17.1-12.2 5.4-1.8 6.5-3 5.6-6.4-.7-2.7-3.9-2.7-11.3-.1zM583.2 573c0 1.4.2 1.9.5 1.2.2-.6.2-1.8 0-2.5-.3-.6-.5-.1-.5 1.3zM581.2 580.5c-2 7.5-7.6 18.3-13.2 25.2-6.5 8-6.5 9.8.3 17.3 2.8 3.3 6.9 9.2 9 13.2 3.1 5.8 3.7 6.6 3.2 3.8-1-5.1-5-13.5-9-19-1.9-2.6-3.5-5.3-3.5-6 0-.6 1.4-3.2 3.1-5.6 6-8.8 12.5-26.3 11.7-31.7-.2-1.4-.8-.3-1.6 2.8zM777.8 606.1c-3.3 3.2-4.8 5.5-4.8 7.3 0 2.8 1 3.2 4.1 1.6 2.5-1.4 6.1-8.5 5.7-11.3-.3-2-.7-1.8-5 2.4zM458.3 635.5c-4.1 4.1-3.9 5 .5 3.4 5.6-1.9 18.9 1.8 21.2 6 1.4 2.8 1.2 9.1-.6 19-2.2 11.5-.9 21.3 5.6 42.4 2.8 8.9 5.8 20.2 6.7 25.2l1.7 9 1-4.4c1.5-7-.6-19.8-6.1-36.1l-4.8-14.5V664c0-20.6-.1-21.7-2.3-25.1-2.8-4.6-7.5-6.9-14.2-6.9-4.6 0-5.6.4-8.7 3.5zM963.3 653.4c-17.8 4.5-29.1 15.9-30 30.5-.4 5.4.2 9.2 3.3 20.6 4.8 18.1 5.1 29.5 1 42.1-6.9 21.5-27.6 41-56 53-11.7 5-29.5 9.8-40.1 10.9-8.1.9-8.5-.5-1.2-4.1 14.8-7.5 26.4-18.9 33.3-32.9 4.8-9.7 8.9-24.3 9.8-34.6l.6-6.4-1.5 6c-8.1 32.1-21.8 49.6-46.9 60.2-14.6 6.2-27.7 8.8-63.8 12.8-5.2.6-5.8.9-5.8 3 0 2.2.4 2.3 9.5 3 5.3.4 11.9.4 14.8 0 2.9-.5 17.6-.9 32.7-1 23.8-.2 28.9-.5 38.3-2.4 25.4-5.2 45.8-15.2 59.9-29.7 15-15.3 20-29.5 20.2-56.4 0-13-.2-15.5-2.6-23.5-4.4-14.8-4.2-19 1.2-24.9 10.2-11.1 38.5-17.1 53.6-11.5 6.5 2.5 14.9 9.9 16 14.2 2.1 8.8-14.7 15.9-25.9 10.9l-4.7-2.1v2.7c.1 4.1 3.3 10.4 6.9 13.5 7.9 6.6 20.3 3.9 25.3-5.5 2-3.7 2.3-5.7 2.2-13.8-.1-16.4-5.8-26-19.1-32.3-5.6-2.6-7.9-3.1-16.2-3.3-5.7-.2-11.7.2-14.8 1zM614.2 654.2c.7 2 6.8 2.3 6.8.4 0-1.2-1-1.6-3.6-1.6-2.4 0-3.4.4-3.2 1.2zM289.1 673.8c-.5 1-3.4 8.4-6.5 16.5-9.1 24.4-15.4 34.5-23.9 38.6-2.4 1.2-5.8 2.1-7.5 2.1-2.2 0-3.2.5-3.2 1.5 0 2.2 7.2 1.9 12-.5 7.2-3.7 13-12.6 21-32 7.5-18.3 8.2-19 14.7-15.1 4.8 3 20.2 21.9 21.4 26.4 1.3 5-.2 9.7-4.9 14.9-6.5 7.2-16.5 12.7-14.8 8.2 1.6-4.3 2.5-15.4 1.6-20.8-1.4-8.5-7.9-18.4-10.4-15.9-.3.3-.6 3.7-.6 7.4 0 6.2.2 7 2.5 8.5 1.4.9 2.5 2.1 2.5 2.6 0 2.2-5.9 8.4-15.9 16.7-12.1 10.1-22.2 20.4-27 27.4-9.2 13.6-12.9 31.5-10 48.4 1.2 7.1 2.5 8.1 3.4 2.5 2-11.9 5.1-16.5 22-33 7.4-7.3 16.7-17.5 20.6-22.7 6.5-8.9 7.2-9.5 10.5-9.5 7.8 0 15.8-6.5 20.8-17 2.6-5.5 3.1-7.7 3.1-14 0-11.6-3.8-18.5-17.8-32.3-6-5.9-11.4-10.7-11.8-10.7-.5 0-1.3.8-1.8 1.8zM829 676.8c0 .4 1.9 2.6 4.1 4.7 3.3 3.2 3.9 3.5 2.9 1.5-2.3-4.6-7-8.8-7-6.2zM111.2 691.5c0 1.6.2 2.2.5 1.2.2-.9.2-2.3 0-3-.3-.6-.5.1-.5 1.8zM515 713.2c.1.7 2.1 2.6 4.6 4.2 2.5 1.5 6.3 5.2 8.6 8.2 2.2 3 4.2 5.4 4.5 5.4 1.3 0-4.1-7.4-9.4-12.7-6-6.2-8.3-7.6-8.3-5.1z"/>
  <path fill="#222" d="M335.3 721.2c-9.6 14.6-19.6 23.9-36 33.7-6.5 3.8-13.8 8.9-16.1 11.3-9.4 9.3-18.1 27.2-21.6 44.1-2.4 11.4-1.8 13.2 1.3 4.2 7.7-22.4 17.6-34.6 37.1-45.4 9.3-5.2 13.2-8.1 20-15 4.7-4.7 10.1-11.3 12-14.5 1.9-3.2 4.7-6.8 6.1-7.9 3.1-2.2 4.6-1.7 11.6 4 2.4 1.9 8.9 5.4 14.5 7.9 16.1 7 22.8 12.1 22.8 17.1 0 1.3-1.1.7-3.9-2.4-4.9-5.3-9.2-7.4-21.3-10.7-10.4-2.7-16.9-5.5-20.5-8.9l-2.3-2v3.1c0 6.8 9 13.5 25.9 19.4 11.6 4 15.3 6.1 19.4 10.8 2.6 3.1 3.6 3.7 4 2.5.8-2 3.8-1.9 13.3.5 8.5 2.2 22.8 8.6 31.8 14.4 3.1 2 6 3.6 6.5 3.6.9 0 5.1-9 5.1-11 0-.6 1.1-3.3 2.5-5.9 2-4 2.3-5.8 1.8-10-.3-2.8-1-5.1-1.4-5.1-.5 0-2.6 1.6-4.8 3.5-4.5 4.1-5.3 4.1-36.5 3.7l-18.8-.2.6-5.3c1.4-10.8-4.6-18.3-21.5-27.1-12.4-6.4-22.3-13-24.3-16.1-.9-1.4-2-2.5-2.4-2.5-.4 0-2.6 2.8-4.9 6.2zM884.2 730c0 1.4.2 1.9.5 1.2.2-.6.2-1.8 0-2.5-.3-.6-.5-.1-.5 1.3zM670 734.9c-.5 1.1-1 2.5-1 3.1 0 1.5 4.9-2.2 5-3.8 0-1.9-2.8-1.4-4 .7z"/>
  <path fill="#222" d="M327.8 750.8c-8.4 11.7-16.1 18.8-30.4 27.7-7 4.4-14.8 10-17.3 12.6-4.5 4.4-10.2 13.8-11.5 18.9-.4 1.4.5.4 1.8-2.1 3.7-6.8 10.2-12.7 22-19.7 19.5-11.6 32.5-24.1 39.1-37.7 4.2-8.5 2.5-8.4-3.7.3z"/>
  <path fill="#222" d="M333.7 756.3c-3.8 8.8-9.8 15.1-25 26.5-22 16.6-28.7 25.5-29.5 39.4-.4 5.8-.2 6.6 1.3 6.5 1.3-.2 3.2 2.4 6.7 8.8 9.3 17.1 12.2 20.7 29.7 36.5l9.4 8.4-.6-3.9c-1.4-8.7-6.5-16.5-18.4-28.4-9.5-9.5-21.8-23.8-24.7-28.8-1.9-3.4 12.4-19.7 20.8-23.7 1.9-.9 3.6-2 3.8-2.4.2-.4 3.3-3.1 7-6 13.4-10.6 19.5-19.6 21.8-32.1.6-3.4 1-6.5.8-6.7-.2-.2-1.6 2.5-3.1 5.9z"/>
  <path fill="#222" d="M365.1 768.4c-2.2 4-7.4 7.5-18.5 12.3-5.6 2.4-11.8 5.6-13.9 7-6.7 4.6-13.9 16.3-17.2 27.8-2.4 8.1-3.4 9.3-5.7 6.5-2.2-2.7-2.2-1.9-.2 5.1 2 6.8 3.1 8 3.9 4.3 4.3-19.1 13.8-31.6 29.5-38.6 3.6-1.6 9.2-4.2 12.5-5.8 7.4-3.7 11.4-3.8 23.5-.6 7.6 2 9.2 2.1 9.7 1 1.3-3.4-4.2-5.7-16.9-7-3.8-.4-6.8-1.1-6.8-1.6s.5-2.9 1.1-5.3c.6-2.3.9-5.1.7-6.1-.2-1.4-.6-1.2-1.7 1zM473 768.7c0 .6 3.2 2.1 7.1 3.3 14.8 4.8 29.7 17.7 37.9 32.8 3.4 6.3 4 7.1 3.6 4.2-2.1-12.5-16-29.7-29.6-36.4-7.6-3.7-19-6-19-3.9zM394 775.9c0 1.8 5.9 5.2 16.7 9.7 6.5 2.7 11.8 5.5 13.2 7.2l2.4 2.7-.6-4c-1.1-6.6-4.7-9.2-18.3-13.1-13.3-3.7-13.4-3.8-13.4-2.5zM576 788.4c0 4.7-5.1 22.2-8.5 29.5-2 4.1-5.1 9.6-7 12.3-4.5 6.1-4.5 8.5-.1 3.5 4.9-5.5 10.1-15.9 13-26 2.5-8.7 4.5-21.7 3.2-21.7-.3 0-.6 1.1-.6 2.4zM638.1 791.5c-2 9.6-2.5 27-1.1 38.5 2.6 22.5 1.2 31.4-6.4 42-4.5 6.3-4.8 10-.8 10 4.1 0 6.8-2.4 8.9-7.7 1.5-4 1.8-7.7 1.8-22.3-.1-9.6-.5-24.9-.9-34-.5-10.4-.5-18.5.2-21.9.5-2.9.7-6.5.3-7.9-.6-2.3-.9-1.8-2 3.3z"/>
  <path fill="#222" d="M355.9 795.3c-8.6 2.4-12.8 7.1-14.4 15.9-.4 2.1-.4 4.5-.1 5.4.6 1.5.9 1.5 3-.5 2.5-2.4 7.5-4.1 11.8-4.1 3.9 0 3.5 1.4-1.1 3.5-4.6 2-7.8 5.1-8.3 8-.2 1.6.2 1.9 2.2 1.6 1.4-.2 4.3-.5 6.5-.5l4-.1.5 5.5c.3 3 1.1 6.5 1.8 7.7 2.5 4.5 12.3 7.3 14.3 4.2 1.7-2.5 2.2-6.2 1.2-7.8-.6-.9-2.7-2.1-4.7-2.6-5.3-1.5-4.5-3 1.9-3.3 4.6-.2 5.5-.6 5.5-2.1 0-4.5 7.5-5.1 12.3-1l2.2 1.9-4.3 3.7c-4.5 4-5.3 6.8-2.4 8.9 1.4 1.1 1.5 1.6.5 3.3-1.8 2.8-1.7 3.1 1 3.1 1.3 0 4.4-1.3 6.9-2.9 6.6-4.2 10.2-11.8 10.3-22 .1-8.9 1-9.6 6.9-5.6l3.9 2.6-.5-4.5c-1-8.5-5.8-12.5-12.8-10.8-2.9.7-4.6.3-9.6-2-11.1-5.2-30.1-7.9-38.5-5.5zm44.2 23c5.5 3.7 5 10.3-1.1 16.2-3.7 3.5-5.2 2.7-3.8-2.2 1-3.6.7-9.8-.7-14.1-1-2.9 1.1-2.9 5.6.1zM180 802.4c0 1.3 1.1 1.6 5.4 1.6 2.9 0 6.7.5 8.5 1.1 3.8 1.4 5.1.5 2.8-1.9-2.5-2.4-16.7-3.2-16.7-.8zM651.8 804.2c-.3 1.6 0 3.5.6 4.1.6.7 2.3 2.8 3.8 4.9 1.5 2 7.5 7.2 13.2 11.7 5.7 4.4 12.4 10.3 14.8 13.1 2.3 2.7 4.6 5 5.1 5 1.5 0 .6-5.7-1.8-10.8-3.3-7.1-10.5-13.9-21-19.8-4.8-2.7-10-6.3-11.5-8.1l-2.8-3.1-.4 3zM182 815.4c0 1.5.9 1.9 7 2.9 1.4.2 3.3.8 4.3 1.2 1.1.5 1.7.3 1.7-.7 0-1.8-3.7-3.6-9-4.4-3.3-.5-4-.4-4 1z"/>
  <path fill="#222" d="M410.7 824.3c-1.2 3.1-.8 11.5 1 18.8l1.6 7-4.4 4.5c-6.3 6.4-16.6 11.3-25.4 12-8.2.7-12.2-.5-12.7-3.8-.3-2.1-.9-2.4-8.5-3-4.5-.4-9.9-1.5-12-2.4-4.7-2.3-10.6-8.1-13.2-13.1-2.8-5.4-2.8-1.2 0 6.4 5.2 13.7 19.3 22.3 29.4 17.9 2.7-1.2 3.5-1.1 7.5.9 2.5 1.2 6 2.6 7.8 3 6.4 1.3 3.1 3.5-5.4 3.5-4.7 0-5.4.2-5.4 2 0 2.2-1.7 2.5-5.2 1-1.3-.5-6.3-2.1-11.2-3.5-12.3-3.7-16.9-8-24.3-23.3-3.1-6.2-5.7-11.1-5.9-10.9-.8.8 4 15.8 7.6 23.4 7.2 15.4 17.3 22.6 32 22.7l7.5.1.3-2.9c.3-2.6.6-2.8 3.5-2.2 11.4 2.1 15.2 2.4 21.3 1.5 17.2-2.4 28.1-13.6 29.2-29.6.6-8.9-.9-14.5-5.5-21.5l-3.5-5.3.5 6.6c.4 5.4 1.1 7.6 3.6 11.2 4.3 6.3 4.1 9.7-.9 14.7-4.5 4.5-7.7 5.4-6.5 1.7 1.6-5 1.7-17 .1-25.5-.9-4.8-1.7-9.8-1.8-11.2-.3-2.1-.4-2.2-1.1-.7zM652 825.8c0 4.1 2.6 10.6 4 9.7 1.7-1 1.1-4.8-1.5-9l-2.5-4v3.3z"/>
  <path fill="#222" d="M344.6 832.2c4.3 12.3 17.3 24.8 25.8 24.8 4.9 0 8.8-7 5.4-9.8-.7-.5-3.6-1-6.4-.9-3.8.1-6.2-.6-9.6-2.6-5.1-3-13.5-11-14.3-13.8-.4-1.1-1-1.9-1.5-1.9s-.2 1.9.6 4.2zM174 833.5c0 1.2 1.7 1.5 9.3 1.5 6.9 0 10.2.5 13.5 2 5.5 2.5 5.7.4.2-3.3-3.4-2.4-23-2.5-23-.2zM743.5 833.2c-19.5 2.2-32.2 7.7-54.7 24-14.9 10.8-28.1 18.2-34.3 19.4-4.5.8-4.7 3.4-.2 3.4 7.9 0 19.6-5.4 37.7-17.2 20.2-13.2 32.2-18.2 46.9-19.4 11.1-.9 20.7 1.3 47.4 11.2 26.8 9.9 36.2 12.4 47.5 12.4 12.1 0 11 1.5-6.4 8.5-9.9 4-12 4.3-12.9 1.6-.6-1.9-.9-1.8-8.4.9-19.6 7.2-39.6 7.9-56.6 2.2-18.2-6.1-26-9.2-26.3-10.2-.2-.6 1.8-2 4.5-3.1 5.7-2.6 7.5-3.8 6.7-5-.6-1-9.8 3.4-12.9 6.1-1.3 1.1-4.4 1.9-9 2.3-8.8.7-12.8 2.1-14 5-.6 1.2-2 2.3-3.2 2.5-1.2.2-2.3 1.3-2.7 2.7-.6 2.3-.6 2.3-12.8 1.8-12.8-.5-17.7.1-34.7 4.7-6.2 1.7-8.1 2.6-8.1 4 0 1.5 1.6 1.8 14.3 2.4 28.6 1.4 38.5 3.8 63.2 15.4 18.2 8.6 27.9 11.8 41 13.8 34.2 5.3 74.3-9.2 97.1-35 5.9-6.6 15.4-20.9 15.4-23 0-2.8-1.5-1.8-8.4 5.9-6.8 7.6-10.4 9.6-9.2 5.2.3-1.2.6-4.1.6-6.4 0-3.9.3-4.4 5.8-8.2 6.9-4.9 13.2-12.7 13.2-16.5 0-2.1-.4-2.6-1.7-2.2-12.7 3.7-15.3 4-30.3 4l-15.5-.1-23.5-6.1c-20.8-5.3-38.3-8.5-45.2-8.1-1.3.1-5.9.6-10.3 1.1zM723.7 876c3.3 1.2 3.7 3.5.5 2.6-1-.2-5.6-.7-10.4-1.1-8.3-.6-11-1.7-7-2.9 2.6-.7 13.2.1 16.9 1.4zM541.1 841c-.2 13.8-4.8 27.3-13 38-3.8 5-5.6 11-3.2 11 2.2 0 10-8.4 12.4-13.5 4.9-9.8 7.1-27.9 4.8-39-.8-3.6-.9-3.2-1 3.5zM440 858c0 5.2-2.1 13.4-5.1 19.4-1.6 3.3-2.9 6.5-2.9 7.2 0 2.8 3.1 0 5.6-5.2 2.1-4.4 2.8-7.4 3.2-15 .3-5.1.2-9.4-.2-9.4-.3 0-.6 1.3-.6 3zM183.5 856.4c-.5.2-2.3.7-3.8 1-1.6.4-2.7 1.2-2.5 1.8.3.7 3.2 1 8.4.9 5.5-.1 8.8.3 10.8 1.4 3.9 2.1 4.6 1 1.5-2.1-1.9-1.9-3.9-2.6-8-2.9-3-.3-5.8-.3-6.4-.1z"/>
  <path fill="#222" d="M761.7 868.6c-1.6.9-5.7 2.1-9 2.8-4.1.8-6.2 1.8-6.2 2.7 0 1.5 3.4 1.5 9.5-.1 4.3-1.2 10-4.6 10-6 0-1.3-1-1.2-4.3.6zM257.6 895.5c-1.1 12.9-.2 25.4 2.3 33.7 3.8 12 13.9 20.3 29.9 24.3 7.3 1.9 8.6 1.4 7.8-2.8-.9-4.5-4.7-8-17.4-15.9-16.9-10.5-19.7-15.4-21.1-37.5l-.7-11.8-.8 10zM414 889.6c-2.5.8-11.2 2-19.5 2.5-8.2.6-15.4 1.5-15.9 1.9-1.8 1.7 3.7 3 15.6 3.6 13.2.7 24.8-.6 26.8-3.2 1.5-1.8.9-5.8-1-6.1-.8 0-3.5.5-6 1.3zM646.5 908.7c-14.8 1.8-38.9 5.7-42.5 6.7-3.3 1-4.5 1.9-4.5 3.2 0 1.9.7 2.2 21.8 10.9 8.7 3.5 15.3 9.9 19.5 18.5 2.4 5 3.2 5.9 3.2 3.9 0-1.4-.9-5.2-2-8.4-1.3-3.7-1.7-6.2-1.1-6.8.5-.5 6-.8 12.4-.5 16.6.6 20.8 2.9 36.3 19.3 12.3 13.1 17.2 16.5 23.8 16.5 2.9 0 4.5-.8 7.6-3.8 6.9-6.7 6-10.2-3.6-13.7-10.2-3.6-17.3-7.7-24-13.6-13.6-12.1-26.7-15.3-47.9-11.4l-9.7 1.7-3.1-3c-1.8-1.6-5.1-3.9-7.4-5.1-2.4-1.2-4.3-2.6-4.3-3.2 0-1.9 51.2-.6 58.5 1.5 11.2 3.1 18.2 7.4 30.1 18.8 13.1 12.4 19.6 17.4 29.9 23 4.1 2.2 7.5 4.4 7.5 4.9 0 1.8-10.1 5.7-24.3 9.5-12.3 3.3-13.8 3.9-13.5 5.8.4 2.9 5.5 3.9 18.8 3.4 10.4-.4 12.2-.7 18.2-3.5 4.1-1.9 8.6-5.1 11.5-8.1 4-4.1 5.7-5.1 10.6-6.1 7.6-1.6 14.2-6.6 14.2-10.5 0-2.8-.1-2.9-6.5-3.2-7.6-.4-22.9-4.2-33.9-8.4-8.9-3.4-15.7-7.8-32.6-21-13.4-10.4-20.5-14.1-31.8-16.4-7-1.5-23.2-1.9-31.2-.9zM122 910c-1.4.4-3.7 1.1-5.2 1.4-1.6.4-2.8 1.3-2.8 2.2 0 1.3.7 1.5 3.8.9 4.7-.8 8.4-2.6 9-4.3.4-1.4-1.1-1.4-4.8-.2zM33.8 961.7c-18.1 31.6-23.8 46.8-25.3 67.8-1.4 18.3 3 43.2 11.5 65 4.5 11.6 21.9 46.5 29.8 59.8 7.7 13 16.7 20.6 24.4 20.7 4.7 0 4.1 2-2.4 8-7.7 7-14.8 17.1-21.2 29.9-10 19.8-18.6 31.3-37.8 50.1-11.1 10.9-14.9 16-12 16 4.3-.1 20.4-2.3 22.9-3.1 6.8-2.2 11.5-10.4 14.7-25.1.4-1.9 3.6-5 11.4-10.9 5.9-4.6 14.7-11.4 19.7-15.2 17.3-13.3 27.5-18.1 46-21.6 11.6-2.3 24.5-3 31.3-1.7 2.6.5 5.8 2.1 7.8 3.8l3.4 3v-2.4c0-3.4-3.8-8.8-7.9-11.2-7.1-4.1-30.2-2.9-45.6 2.4-14 4.8-24 11.6-45 30.4-19.4 17.4-20.7 17.5-10.8 1.1 20.5-34.2 33.3-45.5 79.3-70.1 17.7-9.4 33.5-19.7 45.8-29.6 20.2-16.3 43.2-42.2 43.2-48.5 0-1.3-.3-2.3-.8-2.3-1.4 0-12 9.4-29.5 26.2-9.6 9.3-17.9 16.8-18.4 16.8-.6 0-.8-4.9-.5-12.8.2-8.1 0-13.7-.7-15.6-2-5-2.5-1.9-1.2 6.8 1.2 8.1 1.2 8.8-1.4 17.8-2 6.8-3.4 9.9-5.3 11.6-4.4 3.6-17.4 11.3-38.7 22.7-16.7 8.9-25.3 14.1-38 23-1.9 1.3-2.1.8-2.9-5.3l-.7-5.2h3.9c2.5 0 4.9-.8 6.6-2.1 2.4-1.9 2.7-2.7 2.4-7.2-.3-5.6.6-4.7-18.1-19.1-7.8-6.1-16.4-16.3-15-17.7.5-.5 4.2.4 8.3 2 4.1 1.6 10.1 3.4 13.3 4.1 4.9 1 6.8 2.1 12.5 7.1 7.1 6.4 16.4 11.6 22.4 12.5 3.5.6 3.7.5 4.5-2.7.7-2.4 1.6-3.5 3.7-4 17.4-4.7 24.4-43.5 13.2-73.2-7.4-19.8-19.1-31.1-54.6-53.2-22.7-14.1-34.6-24.8-39-35-1-2.2-2.1-7.4-2.5-11.5-.3-4.2-1-8.2-1.4-8.9-.6-.9-2.3 1.3-5.3 6.6zm8.1 19.3c3.4 9.5 6.8 14.8 15 23.4 8.2 8.5 13.5 12.6 32.9 25.5 13.6 9.1 17.2 12.1 14.2 12.1-1.6 0-27.8-11.8-41.1-18.6-14.3-7.3-26.6-15.5-27.9-18.7-.7-1.9-.9-1.7-.9 1.4-.1 3.6 5.1 15 7.1 15.8.5.2 3.6 2.5 6.8 5.2 3.3 2.7 6.1 4.9 6.4 4.9.3 0 2.9 1.4 5.8 3.1 2.9 1.8 14.7 8 26.3 13.8 34 17.2 42.6 24.2 42.5 34.8-.1 6.9-7.7 17.4-17.1 23.3-6.4 4.1-6.7 7.6-1.3 13.1 3 3 3.5 4.2 3 6.3-.3 1.4-1 2.6-1.5 2.6-1.8 0-17.4-12.3-25.2-19.8-8.1-7.8-18.9-20.2-18.9-21.8 0-.4-1.1-1.9-2.4-3.3-3.6-3.8-12.6-20.2-12.6-22.8 0-1.3-.4-2.3-.8-2.3-1.3 0-3-4.1-7.3-17-3.8-11.2-4.2-10.2-1.4 3 2 9.2 5.8 20.5 10.4 30.7 2.2 4.8 3.6 9.2 3.2 9.6-.5.5-3.5.4-6.7-.3-11.9-2.3-11.7-2.2-16.2-11.9-10.4-22.6-12.5-38.2-7.7-57.8 1.4-6.1 2.5-12.4 2.3-14l-.4-2.8-1.6 3.5c-.9 1.9-2.6 7.5-3.9 12.5-2 7.7-2.4 11.4-2.4 25.5.1 25.7 2.8 34.2 26.4 81.9 5.7 11.6 7.1 16 3.6 11.5-6.2-7.8-27.2-47.4-32.8-61.9-10.5-26.7-8.6-47.4 7-76.5 7.6-14.3 12.5-22.1 13.6-21.7.5.1 2.2 3.6 3.6 7.7zm95 101.5c1.8 7.3 1.4 14.4-1.4 20.2-3 6.6-5 7.1-4.1 1 .4-2.3.9-9.5 1.3-16 .5-9.1.9-11.5 1.8-10.7.7.6 1.8 3 2.4 5.5zm-77.7 9.5c2.3 0 3.7 1.4 8.9 9.2 3.4 5.1 7.5 11 9.2 13.1 4.5 5.8 2.6 6.4-8.1 2.8-15.4-5.1-15.8-5.4-21.4-15.9-2.8-5.1-4.8-9.8-4.5-10.6.4-1.1 1.6-1.1 6.9 0 3.4.8 7.5 1.4 9 1.4zM37 1250.9c0 .6-.4 1.3-1 1.6-.5.3-1-.1-1-.9 0-.9.5-1.6 1-1.6.6 0 1 .4 1 .9z"/>
  <path fill="#222" d="M84 1063.4c0 .8 1.1 3.4 2.5 5.7 2.2 3.9 2.5 4 1.9 1.4-.7-3.2-3.2-8.5-3.9-8.5-.3 0-.5.6-.5 1.4zM106.5 959.4c-17.6 5.8-25.5 13-25.5 23.2 0 6.8 3.2 10.7 16.1 20.1 15 10.8 21.1 16.2 25.6 22.7 3.1 4.5 3.4 4.7 2.8 2.1-1.9-9-13.4-22.1-30.5-34.9-5.8-4.3-10.6-8.5-10.8-9.3-.8-3.3 16.3-8.3 28.4-8.3h5l2.4 5.7c3.5 8.7 13.6 18.2 28 26.2 6.3 3.6 16 9.5 21.5 13.1 15.8 10.6 17.6 11.3 28.5 11.8 6.5.3 12.3-.1 18-1.3 14.3-2.8 16-3.4 16-5.5 0-2.5-.4-2.7-11.7-5-18.7-3.8-25.7-6.8-44.3-18.6-6.4-4-16.7-9.7-23-12.5-13.5-6.2-16.9-8-23.3-12.8-5.5-4.1-9.4-9.6-10.5-14.9-1-4.7-3.1-5-12.7-1.8zM465 973.5c0 .9 1.2 2 2.8 2.6 1.5.6 3.7 2 5 3.1 2 1.9 2.2 2 2.2.4 0-1-1.3-3.1-2.9-4.7-3.2-3.1-7.1-3.9-7.1-1.4zM202.6 1054.9c-1.5 1.6-5.6 4.2-8.9 5.8-5.9 2.7-7 2.8-23.4 3.1-15.9.3-17.3.5-17.3 2.2 0 2.3 2.6 2.7 20 3.6 14.9.8 18.7.1 25.3-4.4 4.3-2.9 9.5-10.8 8-12.3-.6-.6-2 .2-3.7 2zM219.5 1115.1c-15.4 1.8-30.1 9-51.9 25.7-6.6 5.1-17 12.8-22.9 17-9.3 6.6-10.7 8-10.5 10.2.2 1.9.8 2.4 2.5 2.2 1.2-.2 2.4.1 2.7.6.4.6 2.1.6 4.3.1 5.9-1.3 17.7-1 26.1.7 4.2.8 17.2 5.3 28.7 9.9 37.6 15 45.7 17 69 16.9 17.2 0 26.4-1.2 39-5.1 14.7-4.6 27.3-12.3 37.7-23 8.6-8.9 24.8-28.8 24.8-30.5 0-1 1.4-2.7 3-4 1.8-1.3 3-3.1 3-4.5v-2.3l-5.1 2.5c-8.2 4.2-18.9 6.5-30.4 6.5-16.4 0-29.6-2.8-66-13.9-26.9-8.3-40.5-10.5-54-9zM237 1131c4.7.6 13.9 2.2 20.5 3.6 30.1 6.2 49.2 9.4 63.3 10.6 16.1 1.3 18.3 2.3 9.6 4.6-9.5 2.5-20.7 1-41.4-5.5l-18.5-5.8-20 .1c-44.3.2-70.1 5.7-88.2 18.7-4.2 2.9-6.8 3.2-4.4.4 1.8-2.2 23.1-16.2 29.6-19.4 14.6-7.3 30.3-9.6 49.5-7.3zm121.1 14.8c-1.8 3.4-21.7 22-27.1 25.4-7.3 4.6-17.1 8.4-28.3 11-13.4 3.1-41.8 3.1-56.6-.1-12.2-2.6-25.2-6.6-41.1-12.8-6.3-2.4-15.3-5.5-19.9-6.7-4.7-1.3-8.6-2.7-8.8-3.3-.6-1.6 4.2-4.2 10.9-5.9 9-2.3 30-1.4 57.3 2.5 12.1 1.8 29 3.6 37.5 4 21.2 1.1 26.1 3.5 16.4 8-9.7 4.6-28.2 5.7-34.4 2.1-9.4-5.5-15.7-8-19.8-8-6.2 0-4.9 2.3 1.7 3.2 5.8.9 9.1 2.3 9.1 4 0 1-5 .8-15.2-.9-2.4-.3-3.8-.2-3.8.5 0 .6 7.8 2.9 17.3 5.2 9.4 2.3 17.9 4.8 18.8 5.6 1.2 1 1.8 1.1 2.7.2.6-.6 3.4-1.1 6.2-.9 6.5.3 16.4-1.6 21-3.9 2.1-1 5.7-3.4 8.2-5.4 3.4-2.6 6-3.6 10.2-4.1 3.1-.4 7.6-1.7 9.9-2.9 4.8-2.4 10.7-9.7 10.7-13.2 0-2.9 2-3.9 10.5-5.1 6.9-1 7.8-.8 6.6 1.5zm-90.7 4.7c6.9 1.4 9.6 2.8 8.3 4.1-1.4 1.5-29.1-3.2-28.1-4.7.8-1.4 12-1 19.8.6zM174 1159c0 .5-.4 1-.9 1-.6 0-1.3-.5-1.6-1-.3-.6.1-1 .9-1 .9 0 1.6.4 1.6 1z"/>
  <path fill="#222" d="M209 1159c0 .6 1.9 1.9 4.3 2.9 2.3 1 6.2 3.3 8.7 5 4.7 3.2 6.9 2.5 2.8-.9-2.9-2.4-13.2-8-14.7-8-.6 0-1.1.5-1.1 1z"/>
</svg>
